<svg width="400" height="400" viewBox="0 0 400 400" fill="none" xmlns="http://www.w3.org/2000/svg">
<g clip-path="url(#clip0_113_814)">
<path d="M364.879 164.982L301.5 340.5" stroke="white" stroke-width="3.9602" stroke-miterlimit="10" stroke-linecap="round" stroke-linejoin="round"/>
<path d="M364.879 164.982L274.263 94.74L112.48 59.7837" stroke="white" stroke-width="3.9602" stroke-miterlimit="10" stroke-linecap="round" stroke-linejoin="round"/>
<path d="M112.48 59.7837L48.4541 235.018" stroke="white" stroke-width="3.9602" stroke-miterlimit="10" stroke-linecap="round" stroke-linejoin="round"/>
<path d="M204 263.5C208.803 250.81 269.609 107.43 274.263 94.74" stroke="white" stroke-width="2" stroke-miterlimit="10" stroke-linecap="round" stroke-linejoin="round"/>
<path d="M302 339C280.298 322.709 225.93 280.666 204.5 264" stroke="white" stroke-width="2" stroke-miterlimit="10" stroke-linecap="round" stroke-linejoin="round"/>
<path d="M204 263.5C176.001 257.928 76.3737 241.025 48.4537 235.018" stroke="white" stroke-width="2" stroke-miterlimit="10" stroke-linecap="round" stroke-linejoin="round"/>
<path d="M49.5 235L140 306.5L300.853 340.216" stroke="white" stroke-width="5.3677" stroke-miterlimit="10" stroke-linecap="round" stroke-linejoin="round"/>
<path d="M113.5 61.5L203.096 130.025L364 165.5" stroke="white" stroke-width="5.3677" stroke-miterlimit="10" stroke-linecap="round" stroke-linejoin="round"/>
<path d="M250 205.522C252.045 205.307 253.993 205.268 256.044 205.415C256.249 205.429 256.249 205.429 256.459 205.444C261.247 205.778 265.936 206.707 270.632 207.603C271.654 207.796 272.679 207.981 273.703 208.165C273.873 208.195 274.042 208.226 274.217 208.257C274.595 208.325 274.972 208.392 275.349 208.459C275.42 209.312 275.337 209.952 275.073 210.77C273.967 214.626 274.297 218.431 275.174 222.257C275.245 222.581 275.317 222.904 275.388 223.228C275.56 224.008 275.736 224.787 275.914 225.565C276.041 225.466 276.169 225.366 276.3 225.263C278.988 223.166 281.685 221.087 284.425 219.054C284.875 218.718 285.32 218.376 285.764 218.032C285.901 217.927 286.039 217.822 286.18 217.714C286.433 217.52 286.684 217.325 286.934 217.128C287.638 216.593 288.024 216.42 288.902 216.474C289.352 216.564 289.799 216.668 290.243 216.781C290.372 216.814 290.5 216.846 290.633 216.88C290.909 216.949 291.186 217.02 291.462 217.09C292.19 217.277 292.919 217.459 293.649 217.642C293.795 217.679 293.941 217.716 294.092 217.753C295.607 218.133 297.13 218.482 298.655 218.824C300.075 219.143 301.488 219.487 302.899 219.84C302.019 214.937 302.019 214.937 300.262 210.301C300.164 210.085 300.066 209.868 299.964 209.645C299.017 207.65 297.679 205.946 296.313 204.209C297.646 203.136 299.04 202.171 300.468 201.224C300.697 201.071 300.926 200.919 301.154 200.767C301.624 200.454 302.094 200.142 302.564 199.83C303.219 199.395 303.871 198.957 304.523 198.518C307.796 196.322 311.089 194.23 314.646 192.498C314.827 192.409 315.008 192.32 315.195 192.228C316.287 191.712 317.288 191.393 318.48 191.189C317.687 192.615 317.687 192.615 317.243 193.29C316.043 195.138 315.343 197.068 314.648 199.131C314.601 199.264 314.554 199.397 314.505 199.535C312.906 204.079 312.683 208.962 312.331 213.702C312.305 214.051 312.279 214.399 312.252 214.748C312.17 215.823 312.098 216.897 312.042 217.973C312.022 218.347 312.001 218.721 311.978 219.095C311.943 219.702 311.915 220.308 311.888 220.915C311.877 221.1 311.865 221.285 311.853 221.476C311.802 222.512 311.802 222.512 312.351 223.357C312.87 223.638 313.38 223.913 313.918 224.159C316.211 225.24 318.41 226.396 320.523 227.782C319.986 228.792 319.411 229.68 318.659 230.554C317.761 230.421 317.099 229.925 316.367 229.443C315.027 228.581 313.669 227.848 312.219 227.168C311.839 226.985 311.46 226.801 311.08 226.618C311.087 226.749 311.094 226.881 311.102 227.016C310.953 232.491 307.697 238.607 303.731 242.384C300.11 245.689 295.189 247.616 290.229 247.648C289.589 247.627 288.963 247.563 288.329 247.483C288.082 247.454 287.834 247.425 287.579 247.395C284.761 246.967 282.296 245.755 279.894 244.323C279.758 244.248 279.622 244.173 279.482 244.096C276.14 242.17 273.286 238.866 271.31 235.65C271.284 235.525 271.257 235.4 271.23 235.271C270.516 235.869 269.981 236.535 269.447 237.283C269.28 237.514 269.112 237.745 268.944 237.976C268.863 238.088 268.782 238.2 268.699 238.315C268.296 238.864 267.875 239.398 267.452 239.932C267.2 240.267 266.992 240.608 266.78 240.967C266.409 241.442 266.409 241.442 265.946 241.517C265.268 241.448 264.865 241.229 264.286 240.89C264.102 240.784 263.918 240.678 263.729 240.568C263.59 240.486 263.452 240.403 263.309 240.318C263.406 239.464 263.661 238.981 264.196 238.298C264.34 238.114 264.484 237.929 264.632 237.739C265.229 236.999 265.836 236.265 266.447 235.535C266.986 234.879 267.498 234.206 268.004 233.526C268.32 233.117 268.32 233.117 268.727 232.8C269.024 232.411 269.024 232.411 268.934 232.033C268.58 230.899 268.009 229.854 267.445 228.81C267.353 228.638 267.261 228.465 267.166 228.287C266.901 227.791 266.634 227.295 266.367 226.799C266.301 226.677 266.235 226.554 266.167 226.428C265.897 225.926 265.625 225.425 265.352 224.924C265.115 224.485 264.882 224.046 264.652 223.604C261.155 216.899 257.243 210.118 250.423 206.137C250.08 205.901 250.08 205.901 250 205.522Z" fill="white"/>
<path d="M134.54 134.58L143.855 158.225L136.71 164.654C136.71 164.654 125.766 160.876 124.767 160.721L123.657 176.732C123.657 176.732 139.229 177.662 140.027 177.682L136.71 164.654L143.855 158.225L166.978 170.632L166.23 173.08C166.533 172.087 166.224 173.103 166.23 173.08C166.23 173.08 162.727 185.115 162.628 185.576C162.321 186.77 161.964 187.425 160.932 188.102C160.45 188.368 159.963 188.625 159.473 188.876C159.144 189.053 158.816 189.231 158.488 189.409C157.56 189.91 156.625 190.398 155.686 190.88C155.099 191.183 154.514 191.491 153.929 191.798C153.553 191.993 153.176 192.187 152.799 192.381C152.626 192.473 152.454 192.564 152.275 192.659C150.872 193.371 149.707 193.547 148.134 193.102C147.921 193.043 147.707 192.985 147.487 192.924C147.26 192.861 147.033 192.797 146.8 192.731C144.895 192.216 142.998 191.768 141.063 191.408C139.275 191.074 137.502 190.706 135.73 190.285C133.776 189.822 131.818 189.402 129.852 189.006C127.878 188.609 125.913 188.189 123.952 187.726C122.168 187.305 120.382 186.911 118.588 186.547C118.379 186.505 118.17 186.462 117.955 186.418C116.753 186.177 115.552 185.966 114.342 185.78C114.032 184.839 113.908 183.895 113.79 182.921C113.767 182.741 113.745 182.56 113.722 182.375C113.29 178.865 112.893 175.353 112.581 171.833C112.435 170.261 112.248 168.692 112.068 167.122C111.918 165.813 111.771 164.504 111.637 163.194C111.265 159.595 110.861 155.998 110.377 152.409C110.36 152.255 110.343 152.1 110.326 151.941C110.264 151.403 110.264 151.403 110.122 150.797C109.759 148.722 110.504 147.488 111.652 145.876C111.749 145.74 111.847 145.604 111.947 145.463C112.143 145.179 112.338 144.894 112.532 144.609C112.916 144.049 113.303 143.493 113.694 142.939C114.149 142.292 114.594 141.641 115.032 140.983C115.251 140.659 115.469 140.335 115.689 140.012C115.831 139.799 115.831 139.799 115.976 139.583C117.031 138.075 118.165 137.665 119.942 137.374C121.764 137.086 121.909 137.026 121.909 137.026C121.909 137.026 132.286 135.042 134.54 134.58Z" fill="white"/>
<path d="M35.8276 356.12C35.5739 355.063 35.7543 354.098 35.8996 353.049C36.1072 351.461 36.2932 349.874 36.4435 348.277C36.4616 348.086 36.4797 347.894 36.4984 347.697C36.5533 347.112 36.6076 346.528 36.6619 345.944C36.8894 343.519 37.1291 341.098 37.4127 338.68C37.6025 337.048 37.7621 335.412 37.9168 333.774C37.9488 333.5 37.9488 333.5 37.9815 333.221C38.0302 332.602 38.0395 332.015 38.0311 331.395C38.0604 328.106 38.0604 328.106 39.1246 327.042C39.9945 326.346 40.965 325.835 41.9453 325.315C42.3114 325.105 42.6767 324.893 43.0412 324.68C44.0269 324.11 45.0231 323.561 46.0225 323.014C47.067 322.439 48.1008 321.844 49.1358 321.252C51.0946 320.135 53.0624 319.035 55.0342 317.94C57.2796 316.693 59.5142 315.427 61.748 314.159C66.3409 311.553 70.9467 308.971 75.5616 306.405C75.4062 307.086 75.1783 307.548 74.7922 308.126C74.6738 308.303 74.5555 308.481 74.4335 308.665C74.3043 308.856 74.175 309.047 74.0419 309.244C73.907 309.445 73.7722 309.646 73.6333 309.853C72.6194 311.356 71.5749 312.833 70.5146 314.301C69.5005 315.708 68.5099 317.131 67.5249 318.559C65.6213 321.319 63.683 324.051 61.7247 326.77C60.4779 328.502 59.2428 330.242 58.0184 331.99C57.4902 332.744 56.958 333.495 56.4245 334.246C54.0413 337.602 51.6742 340.968 49.3333 344.356C48.2877 345.868 47.2351 347.375 46.1692 348.873C46.0672 349.016 45.9653 349.159 45.8602 349.307C45.367 350 44.873 350.691 44.3778 351.382C44.1994 351.632 44.021 351.882 43.8426 352.132C43.7619 352.244 43.6811 352.356 43.5979 352.472C43.1587 353.088 42.7874 353.717 42.4302 354.386C41.1163 355.419 39.0511 355.531 37.4441 355.813C36.9037 355.908 36.3656 356.014 35.8276 356.12Z" fill="white"/>
<path d="M398.219 72.8785C398.013 73.6768 397.805 74.4742 397.594 75.2709C397.522 75.5419 397.452 75.813 397.382 76.0844C397.282 76.4754 397.178 76.8653 397.074 77.2552C397.012 77.4899 396.951 77.7246 396.888 77.9664C396.529 78.9421 395.921 79.3374 395.047 79.8622C394.862 79.9745 394.677 80.0867 394.486 80.2024C394.285 80.3228 394.084 80.4433 393.877 80.5674C393.444 80.8302 393.011 81.0933 392.577 81.3567C392.409 81.4587 392.409 81.4587 392.238 81.5628C391.026 82.2998 389.825 83.054 388.626 83.8101C388.404 83.9496 388.183 84.0892 387.961 84.2288C387.517 84.5088 387.072 84.7889 386.628 85.0691C385.587 85.7255 384.546 86.381 383.504 87.0362C383.294 87.1687 383.083 87.3012 382.866 87.4377C381.555 88.262 380.242 89.0826 378.927 89.9011C378.278 90.3049 377.63 90.7087 376.981 91.1126C376.818 91.2141 376.655 91.3155 376.487 91.4201C374.305 92.7792 372.131 94.1486 369.966 95.5333C367.885 96.8643 365.793 98.1783 363.692 99.4791C361.685 100.722 359.685 101.975 357.69 103.234C353.982 105.573 350.262 107.892 346.541 110.209C346.485 110.173 346.43 110.137 346.373 110.1C349.338 105.393 352.319 100.696 355.32 96.0112C356.713 93.8357 358.1 91.657 359.475 89.47C360.674 87.5632 361.883 85.6632 363.104 83.7707C363.749 82.7687 364.39 81.764 365.019 80.7511C365.612 79.7965 366.217 78.8515 366.834 77.9122C367.057 77.5671 367.276 77.2188 367.488 76.8673C369.056 74.2877 369.056 74.2877 370.308 73.8846C371.392 73.6948 372.458 73.6994 373.561 73.7648C374.185 73.795 374.794 73.7524 375.414 73.7011C377.874 73.5497 380.336 73.4227 382.8 73.3194C384.912 73.2305 387.021 73.1181 389.129 72.9879C391.57 72.8371 394.007 72.6928 396.456 72.6566C396.715 72.6522 396.974 72.6477 397.24 72.6432C397.884 72.6606 397.884 72.6606 398.219 72.8785Z" fill="white"/>
<path d="M291.12 220.4C291.327 220.453 291.327 220.453 291.539 220.506C291.834 220.581 292.13 220.656 292.425 220.732C293.199 220.932 293.975 221.127 294.751 221.322C294.906 221.361 295.061 221.4 295.22 221.441C296.79 221.836 298.367 222.199 299.948 222.554C301.046 222.801 302.14 223.059 303.231 223.333C303.395 228.122 302.365 232.918 299.092 236.684C296.953 238.895 294.293 240.294 291.161 240.453C287.454 240.376 284.193 238.748 281.65 236.228C279.655 234.14 277.905 231.632 277.028 228.893C278.811 227.426 280.608 225.992 282.47 224.622C283.387 223.948 284.291 223.259 285.187 222.558C285.522 222.297 285.858 222.037 286.194 221.776C286.486 221.549 286.777 221.32 287.067 221.091C287.319 220.898 287.319 220.898 287.577 220.702C287.718 220.592 287.86 220.482 288.006 220.369C289.026 219.829 290.062 220.129 291.12 220.4Z" fill="#3B4086"/>
<path d="M305.863 181.668C305.969 181.77 306.074 181.872 306.183 181.976C305.819 182.273 305.445 182.559 305.063 182.834C304.938 182.793 304.813 182.752 304.683 182.71C305.062 182.24 305.308 181.94 305.863 181.668Z" fill="#3B4086"/>
<rect width="13.5053" height="0.968972" transform="matrix(0.220801 0.975319 -0.980987 0.194075 125.048 160.655)" fill="white"/>
<rect width="13.4736" height="0.968972" transform="matrix(-0.946666 -0.322215 -0.296234 0.955115 140.123 177.43)" fill="white"/>
<rect width="4.92042" height="4.92042" transform="matrix(0.846967 0.531646 -0.558095 0.829777 291.192 231.431)" fill="white"/>
<path d="M131.771 153.418C131.771 153.418 127.967 154.938 124.932 151.565C122.693 149.076 122.686 145.246 125.251 142.938C127.395 141.009 127.573 140.849 127.573 140.849C129.047 145.36 131.771 153.418 131.771 153.418Z" fill="#3B4086"/>
<path d="M148.027 171.485C148.027 171.485 146.116 175.108 149.15 178.481C151.39 180.97 155.198 181.38 157.763 179.072C159.907 177.143 160.085 176.982 160.085 176.982C155.754 175.042 148.027 171.485 148.027 171.485Z" fill="#3B4086"/>
<path d="M296 358.806C296 358.806 323.019 349.011 323.213 349.011C323.891 348.811 336.481 351.21 342.679 361.005C348.877 370.8 349.555 383.593 349.555 383.593L296 358.806Z" fill="white"/>
<path d="M48.934 16.5272C48.934 16.5272 61.1136 42.5589 61.2506 42.6959C61.5886 43.3165 72.187 50.5227 83.4957 47.9793C94.8045 45.4359 104.33 36.8689 104.33 36.8689L48.934 16.5272Z" fill="white"/>
<path d="M214.083 278.922L209.396 296.413L195.729 292.741L190.656 294.365L164.878 296.108L165.581 285.914L196.846 288.606L203.618 278.358L214.083 278.922Z" fill="white"/>
<path d="M208 106.654L217.054 122.336L229.306 115.252L234.626 115.507L259.977 110.519L256.659 100.854L227.156 111.547L217.962 103.401L208 106.654Z" fill="white"/>
<path d="M140 306.235L204.026 131" stroke="white" stroke-width="5.3677" stroke-miterlimit="10" stroke-linecap="round" stroke-linejoin="round"/>
</g>
<defs>
<clipPath id="clip0_113_814">
<rect width="400" height="400" fill="white"/>
</clipPath>
</defs>
</svg>
