<svg width="52" height="50" viewBox="0 0 52 50" fill="none" xmlns="http://www.w3.org/2000/svg">
<path d="M9.55215 4.53515C10.4308 3.06122 11.3946 1.41723 11.7063 0.90703L12.2732 0L38.9172 0.141723L43.1122 7.36962L34.4104 22.3923C29.5918 30.6689 25.6236 37.415 25.5385 37.415C25.4535 37.415 21.4853 30.6122 7.96485 7.22789L9.55215 4.53515Z" fill="#03B9AB"/>
<path d="M0 21.0884L2.72109 16.3549C4.22336 13.7472 5.52721 11.593 5.61224 11.593C5.66893 11.593 9.46712 18.1122 22.2789 40.5045H28.7982L37.1599 26.0488C41.7517 18.0839 45.5215 11.593 45.5215 11.593C45.5215 11.593 46.7687 13.7188 51.0488 21.0884L44.2744 32.8515C40.5329 39.3424 36.7914 45.8333 34.3821 50H16.6667L15.1077 47.3073C14.2574 45.8333 10.5159 39.3424 0 21.0884Z" fill="#03B9AB"/>
<path d="M22.7891 13.6055C21.3435 11.1111 20.1531 9.01362 20.1531 8.92859C20.1531 8.84355 22.5907 8.78687 25.5385 8.78687C28.4864 8.78687 30.924 8.84355 30.924 8.92859C30.924 9.01362 29.7336 11.1111 28.3163 13.6055C26.8707 16.1281 25.6236 18.169 25.5385 18.169C25.4535 18.169 24.2063 16.1281 22.7891 13.6055Z" fill="white"/>
</svg>
