<svg width="650" height="300" viewBox="0 0 650 300" fill="none" xmlns="http://www.w3.org/2000/svg">
<rect width="650" height="300" fill="white"/>
<path d="M347.865 38.8206L233.578 83.2931C227.723 85.5722 224.904 92.3775 227.284 98.4921L287.557 253.416C289.936 259.531 296.611 262.642 302.468 260.363L416.753 215.889C422.61 213.612 425.427 206.806 423.048 200.69L362.776 45.7683C360.396 39.652 353.72 36.5415 347.865 38.8206Z" fill="#10B0B9"/>
<path d="M236.179 90.5431C233.749 94.9581 274.737 229.491 295.141 240.37C318.354 252.749 403.675 200.607 399.65 190.262C384.961 152.496 318.132 211.526 301.4 185.013C284.667 158.498 244.206 75.9559 236.179 90.5431Z" fill="#099094"/>
<path d="M423.584 202.431C424.871 208.048 422.059 213.825 416.755 215.889L302.466 260.363C297.162 262.426 291.185 260.069 288.338 255.061C289.927 255.681 291.716 255.734 293.399 255.08L419.868 205.866C421.55 205.211 422.832 203.962 423.584 202.431Z" fill="#0F6568"/>
<path d="M346.118 56.57L246.861 95.1937C243.428 96.5304 241.728 100.397 243.063 103.829L246.566 112.834C247.902 116.266 251.768 117.968 255.201 116.631L354.458 78.0073C357.892 76.6706 359.592 72.8039 358.255 69.37L354.753 60.3681C353.416 56.9343 349.552 55.2333 346.118 56.57Z" fill="#EDAFB8"/>
<path d="M255.435 131.684C255.2 128.345 271.218 123.592 273.602 124.156C276.882 124.932 282.708 143.157 281.875 144.346C281.043 145.536 263.953 153.377 262.591 150.851C261.228 148.327 255.826 137.192 255.435 131.684Z" fill="#ECF9FA"/>
<path d="M285.533 120.172C285.297 116.833 301.317 112.081 303.699 112.645C306.98 113.42 312.805 131.646 311.972 132.835C311.14 134.024 294.05 141.865 292.688 139.341C291.325 136.815 285.924 125.68 285.533 120.172Z" fill="#ECF9FA"/>
<path d="M315.631 108.662C315.394 105.322 331.413 100.571 333.796 101.134C337.076 101.91 342.902 120.135 342.069 121.324C341.237 122.513 324.148 130.354 322.785 127.83C321.422 125.305 316.02 114.171 315.631 108.662Z" fill="#ECF9FA"/>
<path d="M266.162 159.738C265.927 156.397 281.945 151.646 284.329 152.209C287.609 152.985 293.435 171.211 292.602 172.4C291.77 173.588 274.679 181.431 273.318 178.905C271.955 176.38 266.553 165.246 266.162 159.738Z" fill="#ECF9FA"/>
<path d="M296.261 148.227C296.023 144.887 312.044 140.135 314.426 140.698C317.706 141.474 323.532 159.699 322.698 160.889C321.867 162.078 304.778 169.919 303.415 167.393C302.052 164.868 296.65 153.734 296.261 148.227Z" fill="#ECF9FA"/>
<path d="M326.357 136.715C326.12 133.376 342.14 128.623 344.523 129.186C347.804 129.963 353.629 148.188 352.795 149.377C351.963 150.566 334.875 158.408 333.512 155.882C332.148 153.358 326.747 142.223 326.357 136.715Z" fill="#ECF9FA"/>
<path d="M276.889 187.79C276.654 184.452 292.674 179.699 295.056 180.262C298.336 181.038 304.162 199.264 303.329 200.453C302.497 201.642 285.407 209.483 284.045 206.957C282.682 204.433 277.28 193.298 276.889 187.79Z" fill="#ECF9FA"/>
<path d="M306.988 176.279C306.751 172.94 322.771 168.187 325.153 168.752C328.433 169.526 334.259 187.752 333.426 188.941C332.594 190.13 315.505 197.971 314.142 195.447C312.778 192.922 307.377 181.788 306.988 176.279Z" fill="#ECF9FA"/>
<path d="M337.085 164.768C336.848 161.428 352.867 156.677 355.25 157.24C358.532 158.016 364.356 176.242 363.524 177.431C362.691 178.619 345.602 186.461 344.239 183.936C342.876 181.41 337.474 170.276 337.085 164.768Z" fill="#ECF9FA"/>
<path d="M287.618 215.844C287.38 212.504 303.4 207.752 305.783 208.315C309.063 209.091 314.889 227.317 314.055 228.505C313.224 229.694 296.135 237.536 294.772 235.01C293.409 232.485 288.007 221.351 287.618 215.844Z" fill="#ECF9FA"/>
<path d="M317.714 204.332C317.477 200.993 333.497 196.24 335.88 196.804C339.161 197.58 344.986 215.806 344.152 216.994C343.32 218.183 326.232 226.025 324.869 223.499C323.506 220.974 318.104 209.84 317.714 204.332Z" fill="#ECF9FA"/>
<path d="M347.811 192.821C347.574 189.481 363.594 184.729 365.977 185.293C369.258 186.068 375.083 204.293 374.251 205.483C373.417 206.672 356.329 214.513 354.966 211.987C353.602 209.463 348.201 198.328 347.811 192.821Z" fill="#D02D6B"/>
<path d="M346.088 97.0137C345.851 93.6741 361.871 88.9217 364.254 89.4849C367.535 90.2617 373.359 108.487 372.526 109.676C371.694 110.865 354.605 118.706 353.242 116.181C351.879 113.655 346.478 102.521 346.088 97.0137Z" fill="#1A3C5E"/>
<path d="M356.455 125.204C356.218 121.864 372.238 117.112 374.62 117.676C377.902 118.452 383.726 136.677 382.894 137.866C382.061 139.055 364.972 146.896 363.609 144.371C362.246 141.846 356.844 130.711 356.455 125.204Z" fill="#1A3C5E"/>
<path d="M367.182 153.257C366.945 149.916 382.965 145.165 385.347 145.729C388.628 146.505 394.453 164.73 393.621 165.92C392.787 167.108 375.699 174.95 374.336 172.424C372.973 169.898 367.571 158.765 367.182 153.257Z" fill="#1A3C5E"/>
<path d="M377.909 181.309C377.673 177.97 393.691 173.219 396.074 173.782C399.355 174.558 405.18 192.783 404.348 193.972C403.514 195.161 386.426 203.002 385.062 200.478C383.701 197.952 378.298 186.817 377.909 181.309Z" fill="#1A3C5E"/>
<path d="M356.987 100.453C356.922 100.281 356.894 100.109 356.903 99.9354C356.911 99.7631 356.95 99.6018 357.016 99.4509C357.082 99.3 357.174 99.1636 357.295 99.0408C357.415 98.9179 357.56 98.8244 357.73 98.7599C357.897 98.695 358.067 98.6682 358.239 98.6795C358.41 98.6909 358.571 98.731 358.72 98.798C358.871 98.8669 359.006 98.9619 359.128 99.085C359.251 99.2066 359.345 99.3539 359.41 99.5264C359.476 99.6975 359.504 99.8691 359.495 100.041C359.486 100.215 359.449 100.377 359.382 100.527C359.316 100.678 359.223 100.816 359.103 100.937C358.983 101.06 358.837 101.154 358.668 101.218C358.5 101.283 358.329 101.31 358.159 101.299C357.987 101.287 357.827 101.249 357.677 101.18C357.527 101.111 357.391 101.016 357.269 100.893C357.147 100.772 357.052 100.624 356.987 100.453ZM359.053 105.855C358.987 105.683 358.958 105.512 358.969 105.338C358.977 105.166 359.015 105.003 359.081 104.852C359.148 104.701 359.241 104.565 359.361 104.442C359.481 104.321 359.625 104.227 359.794 104.162C359.963 104.098 360.133 104.071 360.305 104.082C360.477 104.092 360.636 104.132 360.786 104.201C360.937 104.268 361.072 104.365 361.195 104.486C361.317 104.609 361.411 104.757 361.477 104.928C361.542 105.099 361.57 105.272 361.561 105.444C361.551 105.618 361.513 105.779 361.447 105.93C361.381 106.081 361.288 106.217 361.168 106.34C361.048 106.461 360.904 106.555 360.734 106.62C360.565 106.684 360.395 106.711 360.223 106.701C360.053 106.69 359.892 106.65 359.742 106.581C359.593 106.514 359.456 106.419 359.334 106.296C359.212 106.173 359.119 106.026 359.053 105.855ZM355.027 103.266L362.748 100.312L363.437 102.114L355.714 105.067L355.027 103.266Z" fill="white"/>
<path d="M366.069 128.007L369.521 129.554L370.994 126.141L372.717 126.891L371.263 130.394L374.744 131.898L373.957 133.722L370.516 132.156L368.987 135.639L367.264 134.89L368.727 131.365L365.279 129.867L366.069 128.007Z" fill="white"/>
<path d="M382.582 159.33L379.115 160.657L378.459 158.941L381.926 157.616L382.582 159.33Z" fill="white"/>
<path d="M386.09 186.941L389.063 185.804L387.91 182.788L389.685 182.109L390.838 185.125L393.812 183.987L394.5 185.789L391.527 186.925L392.68 189.941L390.904 190.62L389.752 187.604L386.778 188.742L386.09 186.941Z" fill="white"/>
<path d="M355.428 197.096L363.148 194.143L363.837 195.944L356.116 198.897L355.428 197.096ZM356.476 199.84L364.198 196.887L364.887 198.687L357.165 201.641L356.476 199.84Z" fill="white"/>
<path d="M266.268 134.364L264.951 136.915L263.218 135.974L265.408 131.942L267.379 131.187L271.249 141.305L269.22 142.08L266.268 134.364Z" fill="#1A3C5E"/>
<path d="M295.905 129.269L298.429 124.258C298.558 124.002 298.676 123.722 298.787 123.417C298.897 123.112 298.892 122.809 298.777 122.504C298.644 122.161 298.42 121.938 298.101 121.836C297.782 121.734 297.458 121.747 297.129 121.872C296.735 122.023 296.475 122.265 296.348 122.597C296.223 122.929 296.214 123.28 296.325 123.655L294.151 124.305C293.979 123.77 293.913 123.273 293.954 122.816C293.994 122.359 294.119 121.942 294.332 121.565C294.544 121.19 294.833 120.858 295.202 120.57C295.572 120.281 296 120.043 296.488 119.856C296.939 119.684 297.386 119.587 297.83 119.564C298.274 119.543 298.69 119.602 299.077 119.743C299.466 119.883 299.815 120.114 300.124 120.432C300.435 120.75 300.686 121.162 300.878 121.667C301.002 121.99 301.082 122.296 301.116 122.582C301.151 122.87 301.15 123.144 301.115 123.403C301.08 123.663 301.016 123.912 300.926 124.154C300.835 124.396 300.729 124.639 300.607 124.883L298.588 128.686L303.013 126.993L303.734 128.88L296.774 131.542L295.905 129.269Z" fill="#1A3C5E"/>
<path d="M326.02 113.328L326.711 113.064C326.907 112.989 327.095 112.901 327.273 112.801C327.448 112.7 327.6 112.58 327.723 112.44C327.848 112.3 327.927 112.137 327.966 111.954C328.003 111.769 327.977 111.559 327.886 111.321C327.769 111.016 327.553 110.81 327.236 110.701C326.92 110.592 326.589 110.605 326.24 110.737C325.912 110.863 325.674 111.058 325.527 111.321C325.381 111.585 325.326 111.863 325.362 112.155L322.851 112.558C322.797 112.077 322.822 111.638 322.929 111.242C323.036 110.846 323.209 110.494 323.445 110.185C323.683 109.876 323.974 109.603 324.319 109.367C324.665 109.132 325.05 108.932 325.472 108.771C325.914 108.602 326.36 108.494 326.81 108.448C327.261 108.4 327.687 108.434 328.085 108.55C328.485 108.665 328.844 108.863 329.161 109.145C329.48 109.428 329.731 109.811 329.917 110.298C330.132 110.86 330.17 111.397 330.032 111.908C329.894 112.421 329.57 112.84 329.06 113.165L329.075 113.208C329.391 113.132 329.69 113.12 329.975 113.175C330.26 113.231 330.522 113.332 330.762 113.48C331.002 113.628 331.216 113.821 331.402 114.054C331.589 114.288 331.739 114.554 331.851 114.849C332.044 115.354 332.117 115.834 332.07 116.289C332.024 116.744 331.887 117.159 331.658 117.536C331.431 117.912 331.123 118.246 330.733 118.536C330.344 118.828 329.905 119.066 329.417 119.253C328.525 119.595 327.676 119.679 326.871 119.505C326.069 119.333 325.39 118.833 324.837 118.007L326.861 116.627C327.075 116.96 327.338 117.187 327.648 117.309C327.957 117.43 328.339 117.406 328.789 117.233C329.25 117.056 329.543 116.805 329.672 116.477C329.8 116.15 329.791 115.795 329.645 115.414C329.536 115.129 329.392 114.93 329.215 114.817C329.037 114.705 328.84 114.648 328.623 114.642C328.406 114.638 328.177 114.673 327.937 114.749C327.697 114.825 327.459 114.907 327.224 114.998L326.731 115.186L326.02 113.328Z" fill="#1A3C5E"/>
<path d="M277.833 162.705L277.805 162.716L276.927 167.049L279.166 166.192L277.833 162.705ZM279.854 167.994L275.5 169.659L274.812 167.857L276.48 160.012L278.792 159.129L281.195 165.417L282.478 164.927L283.166 166.727L281.884 167.217L282.66 169.246L280.631 170.024L279.854 167.994Z" fill="#1A3C5E"/>
<path d="M310.997 148.974L307.037 150.488L307.591 152.062C307.778 151.903 308.059 151.751 308.435 151.608C308.942 151.414 309.436 151.312 309.917 151.304C310.398 151.294 310.847 151.377 311.264 151.55C311.68 151.723 312.052 151.986 312.38 152.335C312.708 152.685 312.97 153.117 313.166 153.631C313.385 154.203 313.484 154.749 313.462 155.27C313.44 155.793 313.32 156.272 313.099 156.712C312.879 157.151 312.569 157.541 312.166 157.88C311.762 158.219 311.288 158.494 310.745 158.702C309.879 159.033 309.075 159.095 308.328 158.889C307.583 158.683 306.935 158.188 306.387 157.404L308.403 156.044C308.598 156.383 308.86 156.619 309.189 156.749C309.52 156.88 309.867 156.876 310.233 156.735C310.684 156.562 310.99 156.282 311.148 155.894C311.306 155.506 311.303 155.092 311.134 154.654C311.006 154.321 310.834 154.073 310.617 153.91C310.398 153.749 310.153 153.645 309.884 153.601C309.614 153.558 309.334 153.564 309.043 153.62C308.752 153.676 308.47 153.757 308.198 153.862C307.85 153.994 307.513 154.161 307.187 154.363C306.86 154.565 306.554 154.785 306.269 155.025L304.244 149.394L310.276 147.087L310.997 148.974Z" fill="#1A3C5E"/>
<path d="M340.474 143.251C340.299 142.795 340.007 142.473 339.595 142.286C339.185 142.099 338.741 142.097 338.261 142.281C337.782 142.464 337.452 142.762 337.27 143.176C337.089 143.588 337.087 144.024 337.261 144.48C337.436 144.938 337.729 145.26 338.14 145.447C338.55 145.634 338.996 145.636 339.475 145.453C339.953 145.269 340.283 144.972 340.464 144.558C340.646 144.145 340.648 143.709 340.474 143.251ZM337.577 140.789L337.888 140.588L338.23 140.425C338.7 140.245 339.16 140.167 339.611 140.191C340.061 140.215 340.479 140.323 340.864 140.515C341.25 140.706 341.595 140.976 341.901 141.323C342.205 141.669 342.445 142.072 342.621 142.529C342.82 143.053 342.906 143.564 342.875 144.062C342.844 144.559 342.721 145.025 342.504 145.457C342.287 145.89 341.984 146.277 341.591 146.617C341.199 146.958 340.744 147.227 340.228 147.425C339.703 147.626 339.181 147.73 338.668 147.735C338.153 147.742 337.67 147.655 337.221 147.479C336.77 147.301 336.368 147.036 336.013 146.687C335.659 146.336 335.381 145.899 335.18 145.375C335.042 145.013 334.949 144.669 334.899 144.344C334.851 144.019 334.829 143.702 334.835 143.395C334.84 143.086 334.871 142.783 334.924 142.484C334.976 142.186 335.032 141.877 335.095 141.558L335.956 137.265L338.534 136.279L337.577 140.789Z" fill="#1A3C5E"/>
<path d="M288.752 188.976L283.819 190.863L283.065 188.89L290.364 186.099L291.085 187.986L290.246 197.743L287.779 198.685L288.752 188.976Z" fill="#1A3C5E"/>
<path d="M317.524 179.054C317.645 179.368 317.86 179.593 318.169 179.725C318.478 179.858 318.817 179.854 319.182 179.714C319.548 179.574 319.803 179.352 319.944 179.046C320.086 178.741 320.096 178.431 319.976 178.115C319.859 177.811 319.647 177.592 319.338 177.459C319.028 177.327 318.69 177.33 318.325 177.47C317.957 177.61 317.704 177.833 317.561 178.138C317.421 178.444 317.408 178.749 317.524 179.054ZM318.935 183.249C319.069 183.601 319.311 183.852 319.66 184.003C320.008 184.155 320.394 184.148 320.816 183.987C321.239 183.825 321.529 183.572 321.688 183.228C321.848 182.883 321.86 182.534 321.725 182.181C321.586 181.82 321.344 181.563 320.994 181.413C320.646 181.262 320.261 181.267 319.838 181.428C319.415 181.59 319.125 181.844 318.965 182.187C318.806 182.534 318.796 182.886 318.935 183.249ZM315.297 179.563C315.118 179.096 315.049 178.654 315.089 178.241C315.131 177.826 315.259 177.444 315.475 177.095C315.691 176.744 315.98 176.435 316.339 176.165C316.699 175.896 317.109 175.675 317.57 175.498C318.03 175.322 318.485 175.214 318.932 175.174C319.38 175.134 319.798 175.173 320.188 175.291C320.578 175.41 320.93 175.608 321.24 175.887C321.552 176.168 321.797 176.541 321.976 177.007C322.186 177.56 322.219 178.088 322.072 178.592C321.926 179.096 321.616 179.532 321.142 179.899L321.153 179.927C321.817 179.859 322.389 179.975 322.87 180.277C323.352 180.58 323.712 181.044 323.953 181.673C324.139 182.159 324.207 182.624 324.155 183.07C324.105 183.515 323.965 183.921 323.734 184.288C323.502 184.655 323.199 184.982 322.823 185.266C322.448 185.553 322.031 185.784 321.57 185.958C321.111 186.135 320.645 186.242 320.175 186.28C319.705 186.318 319.262 186.277 318.845 186.159C318.427 186.039 318.052 185.83 317.716 185.533C317.382 185.235 317.121 184.843 316.937 184.357C316.696 183.728 316.655 183.14 316.811 182.595C316.968 182.049 317.317 181.579 317.857 181.188L317.845 181.159C317.248 181.202 316.727 181.085 316.282 180.808C315.835 180.53 315.507 180.114 315.297 179.563Z" fill="#1A3C5E"/>
<path d="M346.594 168.475C346.77 168.931 347.063 169.254 347.474 169.44C347.884 169.627 348.33 169.629 348.808 169.445C349.287 169.264 349.617 168.965 349.798 168.552C349.98 168.138 349.982 167.702 349.808 167.246C349.633 166.788 349.34 166.466 348.929 166.279C348.518 166.092 348.073 166.09 347.595 166.274C347.116 166.457 346.786 166.755 346.604 167.169C346.423 167.581 346.421 168.017 346.594 168.475ZM349.492 170.937L349.181 171.138L348.839 171.302C348.369 171.481 347.909 171.559 347.458 171.535C347.008 171.511 346.59 171.403 346.204 171.211C345.819 171.02 345.474 170.752 345.168 170.403C344.864 170.057 344.624 169.654 344.448 169.197C344.249 168.673 344.163 168.162 344.194 167.665C344.225 167.167 344.348 166.701 344.564 166.27C344.781 165.838 345.083 165.452 345.471 165.112C345.858 164.773 346.314 164.504 346.841 164.301C347.358 164.104 347.874 164.001 348.394 163.993C348.914 163.987 349.399 164.071 349.849 164.249C350.299 164.425 350.701 164.69 351.056 165.039C351.41 165.39 351.688 165.827 351.889 166.351C352.027 166.713 352.121 167.058 352.17 167.382C352.219 167.707 352.24 168.024 352.234 168.333C352.228 168.64 352.198 168.944 352.145 169.242C352.092 169.542 352.037 169.85 351.976 170.168L351.113 174.461L348.535 175.447L349.492 170.937Z" fill="#1A3C5E"/>
<path d="M298.518 223.135C298.62 223.402 298.754 223.716 298.919 224.079C299.085 224.442 299.285 224.774 299.52 225.077C299.753 225.381 300.023 225.611 300.325 225.769C300.628 225.927 300.971 225.931 301.355 225.783C301.731 225.64 301.982 225.408 302.107 225.087C302.231 224.767 302.281 224.414 302.252 224.032C302.225 223.65 302.151 223.268 302.033 222.888C301.914 222.506 301.804 222.183 301.702 221.917C301.6 221.65 301.466 221.336 301.3 220.972C301.135 220.61 300.936 220.276 300.701 219.974C300.466 219.67 300.196 219.44 299.889 219.285C299.581 219.129 299.239 219.124 298.864 219.267C298.478 219.415 298.226 219.648 298.106 219.967C297.986 220.286 297.938 220.637 297.967 221.018C297.995 221.402 298.068 221.783 298.187 222.164C298.305 222.544 298.415 222.868 298.518 223.135ZM296.404 223.943C296.175 223.342 295.996 222.712 295.867 222.051C295.737 221.391 295.716 220.756 295.8 220.144C295.884 219.534 296.104 218.978 296.462 218.474C296.819 217.972 297.368 217.579 298.11 217.295C298.853 217.011 299.524 216.937 300.124 217.074C300.726 217.209 301.262 217.476 301.731 217.875C302.202 218.275 302.609 218.763 302.954 219.34C303.299 219.919 303.586 220.508 303.815 221.108C304.045 221.708 304.225 222.34 304.354 222.999C304.482 223.659 304.504 224.296 304.421 224.906C304.337 225.518 304.117 226.074 303.759 226.576C303.402 227.078 302.852 227.473 302.111 227.756C301.368 228.04 300.697 228.113 300.096 227.978C299.494 227.842 298.959 227.575 298.488 227.176C298.018 226.777 297.61 226.288 297.265 225.711C296.92 225.132 296.634 224.543 296.404 223.943Z" fill="#1A3C5E"/>
<path d="M337.285 211.043C337.139 210.662 336.886 210.387 336.526 210.219C336.165 210.051 335.796 210.038 335.422 210.183C335.046 210.327 334.779 210.581 334.623 210.946C334.467 211.312 334.462 211.686 334.607 212.067C334.757 212.457 335.011 212.737 335.372 212.904C335.731 213.073 336.1 213.084 336.476 212.941C336.851 212.797 337.119 212.542 337.273 212.177C337.43 211.811 337.434 211.433 337.285 211.043ZM333.17 212.616C333.021 212.226 332.952 211.831 332.967 211.433C332.983 211.033 333.065 210.659 333.215 210.305C333.365 209.953 333.582 209.639 333.864 209.361C334.144 209.085 334.478 208.872 334.864 208.725C335.248 208.577 335.639 208.513 336.033 208.531C336.428 208.55 336.799 208.64 337.146 208.803C337.493 208.965 337.806 209.188 338.083 209.477C338.36 209.763 338.573 210.103 338.722 210.492C338.871 210.883 338.939 211.281 338.927 211.684C338.914 212.089 338.833 212.466 338.682 212.818C338.531 213.171 338.316 213.485 338.034 213.762C337.751 214.04 337.419 214.252 337.034 214.398C336.648 214.547 336.259 214.611 335.863 214.592C335.469 214.574 335.097 214.484 334.751 214.321C334.403 214.159 334.09 213.934 333.812 213.64C333.533 213.349 333.319 213.007 333.17 212.616ZM331.656 204.137L333.096 204.356L331.238 216.942L329.933 216.738L331.656 204.137ZM328.366 208.965C328.221 208.585 327.968 208.311 327.608 208.142C327.246 207.974 326.879 207.962 326.503 208.106C326.128 208.25 325.861 208.505 325.704 208.87C325.549 209.236 325.544 209.609 325.689 209.99C325.835 210.371 326.088 210.647 326.448 210.814C326.808 210.981 327.176 210.994 327.552 210.849C327.928 210.706 328.193 210.452 328.35 210.086C328.507 209.72 328.512 209.348 328.366 208.965ZM324.251 210.54C324.103 210.15 324.035 209.755 324.049 209.355C324.064 208.957 324.147 208.582 324.297 208.229C324.447 207.877 324.664 207.562 324.946 207.285C325.228 207.008 325.56 206.796 325.945 206.649C326.331 206.501 326.72 206.437 327.116 206.455C327.51 206.474 327.88 206.564 328.228 206.726C328.574 206.888 328.888 207.112 329.165 207.4C329.441 207.686 329.654 208.027 329.803 208.416C329.953 208.807 330.02 209.201 330.005 209.6C329.991 209.999 329.909 210.374 329.759 210.727C329.607 211.079 329.392 211.395 329.11 211.672C328.828 211.948 328.494 212.16 328.11 212.307C327.724 212.455 327.335 212.519 326.94 212.5C326.546 212.482 326.174 212.392 325.827 212.231C325.479 212.069 325.168 211.844 324.891 211.557C324.614 211.269 324.401 210.93 324.251 210.54Z" fill="#1A3C5E"/>
<path d="M341.876 77.5235C343.781 77.0507 348.262 75.5249 349.359 74.7652C349.302 72.7444 345.875 64.3484 344.696 62.8491C343.267 62.8953 338.491 64.6779 337.445 65.5552C337.647 67.4595 340.678 75.602 341.876 77.5235ZM347.804 78.0188C345.287 78.9974 342.302 79.8189 341.71 79.9179C341.362 79.9752 340.84 79.9181 340.331 79.3134C339.174 77.9391 334.56 66.6415 335.217 64.7626C335.399 64.2422 335.852 63.6276 337.925 62.6472C339.056 62.1117 343.974 60.0754 345.581 60.664C347.423 61.3352 350.675 70.4521 351.262 72.6221C351.786 74.5633 351.794 75.5109 351.289 76.1207C350.79 76.7201 349.39 77.4003 347.804 78.0188Z" fill="#1A3C5E"/>
</svg>
