<svg width="650" height="300" viewBox="0 0 650 300" fill="none" xmlns="http://www.w3.org/2000/svg">
<rect width="650" height="300" fill="white"/>
<path d="M369.656 46.0983L421.259 206.575L369.656 46.0983Z" fill="#1A3C5E"/>
<path d="M421.57 206.475L369.965 46L369.344 46.1984L420.949 206.675L421.57 206.475Z" fill="#343434"/>
<path d="M334.422 57.4309L386.027 217.906L334.422 57.4309Z" fill="#1A3C5E"/>
<path d="M386.339 217.806L334.734 57.331L334.111 57.5312L385.717 218.006L386.339 217.806Z" fill="#343434"/>
<path d="M299.189 68.7617L350.795 229.238L299.189 68.7617Z" fill="#1A3C5E"/>
<path d="M351.106 229.138L299.501 68.6615L298.88 68.8617L350.484 229.338L351.106 229.138Z" fill="#343434"/>
<path d="M263.958 80.0946L315.562 240.569L263.958 80.0946Z" fill="#1A3C5E"/>
<path d="M315.873 240.469L264.268 79.9944L263.647 80.1945L315.252 240.669L315.873 240.469Z" fill="#343434"/>
<path d="M228.725 91.4251L280.33 251.9L228.725 91.4251Z" fill="#1A3C5E"/>
<path d="M280.64 251.802L229.036 91.325L228.414 91.5252L280.019 252L280.64 251.802Z" fill="#343434"/>
<path d="M222.1 104.333L382.563 52.7258L222.1 104.333Z" fill="#1A3C5E"/>
<path d="M382.663 53.0351L382.463 52.4142L222 104.024L222.2 104.644L382.663 53.0351Z" fill="#343434"/>
<path d="M233.43 139.569L393.893 87.9616L233.43 139.569Z" fill="#1A3C5E"/>
<path d="M393.992 88.271L393.792 87.6501L233.33 139.258L233.53 139.88L393.992 88.271Z" fill="#343434"/>
<path d="M244.76 174.805L405.224 123.195L244.76 174.805Z" fill="#1A3C5E"/>
<path d="M405.324 123.507L405.124 122.884L244.661 174.494L244.861 175.114L405.324 123.507Z" fill="#343434"/>
<path d="M256.092 210.039L416.554 158.431L256.092 210.039Z" fill="#1A3C5E"/>
<path d="M416.654 158.741L416.454 158.12L255.992 209.73L256.192 210.35L416.654 158.741Z" fill="#343434"/>
<path d="M267.422 245.275L427.886 193.665L267.422 245.275Z" fill="#1A3C5E"/>
<path d="M427.986 193.977L427.786 193.356L267.322 244.963L267.524 245.586L427.986 193.977Z" fill="#343434"/>
<path d="M372.493 175.606L372.693 175.526C373.747 175.024 375.339 174.264 386.623 91.0659C386.749 90.1411 386.1 89.2886 385.177 89.1644C384.251 89.0366 383.398 89.6834 383.274 90.6118C379.423 119.002 373.414 160.898 371.164 170.995C363.881 163.726 334.767 133.403 314.883 112.599C314.503 112.2 313.955 112.015 313.412 112.095C312.869 112.167 312.398 112.514 312.152 113.007L289.201 158.595L243.98 134.932C243.153 134.502 242.132 134.816 241.698 135.646C241.267 136.472 241.585 137.495 242.412 137.927L289.155 162.386C289.957 162.803 291.039 162.455 291.449 161.649L314.094 116.665C331.95 135.344 369.441 174.479 371.031 175.444C371.457 175.702 372.015 175.759 372.493 175.606Z" fill="#EDAFB8"/>
<path d="M379.29 92.6577C380.294 95.7842 383.643 97.5021 386.769 96.4977C389.893 95.4914 391.613 92.1426 390.607 89.018C389.602 85.8915 386.254 84.1736 383.128 85.178C380.003 86.1825 378.284 89.5313 379.29 92.6577Z" fill="#EDAFB8"/>
<path d="M366.25 175.819C367.254 178.945 370.603 180.665 373.727 179.659C376.853 178.654 378.573 175.305 377.567 172.179C376.562 169.052 373.214 167.334 370.088 168.339C366.963 169.345 365.243 172.694 366.25 175.819Z" fill="#EDAFB8"/>
<path d="M308.003 115.584C309.007 118.711 312.356 120.429 315.482 119.424C318.606 118.42 320.326 115.071 319.321 111.944C318.315 108.82 314.967 107.1 311.842 108.105C308.716 109.111 306.996 112.46 308.003 115.584Z" fill="#EDAFB8"/>
<path d="M284.102 162.151C285.106 165.277 288.455 166.997 291.581 165.991C294.705 164.986 296.425 161.637 295.418 158.511C294.414 155.386 291.066 153.667 287.939 154.673C284.815 155.677 283.095 159.026 284.102 162.151Z" fill="#EDAFB8"/>
<path d="M237.539 138.248C238.543 141.374 241.892 143.092 245.016 142.088C248.142 141.083 249.862 137.734 248.856 134.608C247.851 131.483 244.503 129.763 241.376 130.768C238.252 131.774 236.532 135.123 237.539 138.248Z" fill="#EDAFB8"/>
</svg>
