<svg width="55" height="42" viewBox="0 0 55 42" fill="none" xmlns="http://www.w3.org/2000/svg">
<path d="M11.9942 0C12.9001 0.0979918 13.7478 0.265366 14.6231 0.525788C14.7109 0.551604 14.7109 0.551605 14.8004 0.577943C16.8444 1.1819 18.7909 2.04219 20.7436 2.88868C21.1689 3.07221 21.5958 3.25217 22.0229 3.43146C22.0936 3.46116 22.1644 3.49086 22.2372 3.52146C22.3945 3.58747 22.5519 3.65337 22.7092 3.71926C22.6614 4.10738 22.5665 4.38584 22.3771 4.72656C21.5434 6.34612 21.3363 8.07908 21.3643 9.87375C21.3656 10.0251 21.3668 10.1765 21.3679 10.3279C21.3708 10.6931 21.3754 11.0583 21.3809 11.4234C21.4453 11.391 21.5098 11.3585 21.5762 11.3251C22.9335 10.6422 24.2939 9.96813 25.6678 9.31916C25.8938 9.2112 26.1182 9.10051 26.3423 8.9889C26.4114 8.95498 26.4805 8.92106 26.5517 8.88612C26.679 8.82358 26.8059 8.76014 26.9322 8.69561C27.2865 8.52338 27.4699 8.4823 27.8453 8.58972C28.032 8.6728 28.2161 8.76183 28.3981 8.85469C28.4509 8.88142 28.5038 8.90815 28.5582 8.93569C28.6715 8.99306 28.7847 9.05066 28.8978 9.10848C29.1963 9.26102 29.4956 9.41183 29.7949 9.56277C29.8549 9.59309 29.9149 9.62341 29.9768 9.65466C30.5986 9.96813 31.2263 10.2688 31.8558 10.5664C32.4419 10.8438 33.0223 11.1317 33.6013 11.4234C33.6707 9.14735 33.6707 9.14735 33.3357 6.90719C33.3131 6.80103 33.2905 6.69487 33.2672 6.58549C33.0399 5.60331 32.6171 4.71415 32.1845 3.80781C32.861 3.45439 33.5536 3.15527 34.2599 2.86693C34.373 2.82057 34.4861 2.77419 34.5992 2.72778C34.8314 2.63254 35.0637 2.53751 35.296 2.44258C35.6198 2.31012 35.9429 2.17597 36.2659 2.04158C37.8859 1.36991 39.5054 0.74713 41.2059 0.309938C41.2927 0.287301 41.3795 0.264663 41.469 0.241339C41.9893 0.113868 42.4524 0.0665585 42.988 0.0885538C42.5132 0.650857 42.5132 0.650857 42.2585 0.910443C41.5687 1.6233 41.0881 2.4198 40.5971 3.27649C40.5644 3.33171 40.5318 3.38693 40.4981 3.44383C39.3873 5.32411 38.8416 7.48679 38.2534 9.5734C38.21 9.72699 38.1664 9.8805 38.1227 10.034C37.9883 10.5067 37.8582 10.9803 37.7352 11.4561C37.6923 11.6216 37.6486 11.787 37.6044 11.9522C37.5332 12.22 37.4653 12.4885 37.3981 12.7573C37.376 12.839 37.3539 12.9208 37.3312 13.005C37.2138 13.4636 37.2138 13.4636 37.3742 13.8936C37.573 14.0684 37.769 14.2401 37.9792 14.4011C38.8738 15.102 39.7203 15.8279 40.5085 16.6481C40.1828 17.0489 39.8523 17.3915 39.4459 17.7108C39.069 17.5664 38.8275 17.2817 38.5548 16.9968C38.0536 16.4837 37.5322 16.0271 36.9664 15.5855C36.8187 15.4675 36.6711 15.3495 36.5236 15.2312C36.5146 15.2907 36.5056 15.3502 36.4963 15.4115C35.9285 17.8461 33.9551 20.2722 31.889 21.5852C30.0161 22.7196 27.7062 23.1147 25.5538 22.6582C25.2787 22.5879 25.0131 22.4998 24.7459 22.4041C24.6413 22.3676 24.5366 22.331 24.4287 22.2934C23.2468 21.8347 22.2904 21.0586 21.3809 20.1903C21.3288 20.1438 21.2768 20.0973 21.2232 20.0495C19.9521 18.8713 19.0191 17.1224 18.4586 15.4969C18.4586 15.4385 18.4586 15.38 18.4586 15.3198C18.0945 15.5195 17.8011 15.7667 17.5011 16.0504C17.4073 16.1378 17.3135 16.2252 17.2196 16.3126C17.1742 16.3549 17.1288 16.3972 17.082 16.4408C16.8571 16.6481 16.6252 16.8471 16.3928 17.0459C16.2531 17.1719 16.1313 17.3044 16.0068 17.4451C15.802 17.6222 15.802 17.6222 15.5945 17.6115C15.3073 17.5165 15.1527 17.3804 14.9331 17.1739C14.8631 17.1089 14.7931 17.044 14.721 16.9771C14.6686 16.927 14.6162 16.8768 14.5623 16.8252C14.6828 16.4526 14.8375 16.2608 15.1323 16.0061C15.2115 15.9373 15.2908 15.8684 15.3724 15.7975C15.6994 15.5229 16.0297 15.2525 16.3617 14.9839C16.6558 14.7417 16.9393 14.4891 17.2213 14.2329C17.396 14.08 17.396 14.08 17.6011 13.977C17.7658 13.8313 17.7658 13.8313 17.7614 13.6538C17.7123 13.1129 17.5611 12.5916 17.4126 12.071C17.3886 11.9851 17.3647 11.8992 17.34 11.8108C17.2707 11.5634 17.2007 11.3163 17.1303 11.0692C17.113 11.0083 17.0957 10.9473 17.0779 10.8845C17.0069 10.6342 16.9352 10.3841 16.8629 10.1342C16.8007 9.91568 16.74 9.69709 16.681 9.47767C15.782 6.14674 14.7105 2.74296 12.1212 0.315127C11.9942 0.177108 11.9942 0.177108 11.9942 0Z" fill="white"/>
<path d="M28.4455 10.5559C28.5305 10.599 28.5305 10.599 28.6173 10.6429C28.7385 10.7044 28.8595 10.7662 28.9804 10.8283C29.2976 10.9912 29.6161 11.1518 29.9343 11.3128C29.9978 11.345 30.0612 11.3771 30.1266 11.4103C30.7705 11.7362 31.4208 12.048 32.0731 12.3569C32.5263 12.5715 32.9765 12.7908 33.4242 13.0168C33.0547 15.1744 32.1677 17.2215 30.403 18.5953C29.2727 19.381 27.9914 19.7544 26.6194 19.5282C25.0202 19.1422 23.7565 18.1041 22.8864 16.736C22.2136 15.6128 21.6862 14.325 21.558 13.0168C22.4652 12.5302 23.3761 12.0591 24.3089 11.6234C24.7682 11.4086 25.2231 11.1864 25.6758 10.9579C25.8452 10.8731 26.0147 10.7884 26.1842 10.7039C26.3317 10.63 26.4787 10.5551 26.6257 10.4802C26.7527 10.418 26.7527 10.418 26.8823 10.3546C26.9538 10.3189 27.0253 10.2832 27.0989 10.2463C27.5904 10.1017 28.0118 10.334 28.4455 10.5559Z" fill="#272154"/>
<rect x="23.4673" y="31.4309" width="4.8597" height="0.354215" transform="rotate(30 23.4673 31.4309)" fill="white"/>
<rect width="4.84831" height="0.354215" transform="matrix(-0.866025 0.5 0.5 0.866025 31.5207 31.437)" fill="white"/>
<rect x="27.4625" y="15.4971" width="2.21384" height="2.21384" transform="rotate(45 27.4625 15.4971)" fill="white"/>
<path d="M18.813 22.4043L27.3141 25.6808V29.2229C27.3141 29.2229 23.6975 31.2894 23.4177 31.5253L27.4027 35.7759C27.4027 35.7759 31.3687 31.7388 31.5647 31.5253L27.3141 29.2229V25.6808L36.13 22.4043L36.6012 23.2123C36.4098 22.8849 36.606 23.2197 36.6012 23.2123C36.6012 23.2123 38.9591 27.1387 39.0581 27.2795C39.3015 27.658 39.3902 27.9173 39.3235 28.3668C39.279 28.5644 39.2308 28.7611 39.1803 28.9573C39.1488 29.0909 39.1176 29.2246 39.0867 29.3584C38.998 29.7363 38.904 30.1126 38.8081 30.4887C38.7483 30.7242 38.6901 30.9602 38.632 31.1962C38.5937 31.3473 38.5554 31.4984 38.5169 31.6495C38.4999 31.7194 38.4829 31.7894 38.4654 31.8614C38.3193 32.4216 38.0878 32.7841 37.594 33.1051C37.5274 33.1492 37.4608 33.1934 37.3923 33.2388C37.3212 33.2852 37.25 33.3316 37.1768 33.3794C36.5854 33.7742 36.0132 34.1835 35.4555 34.6247C34.9399 35.0323 34.4187 35.4274 33.8837 35.8091C33.294 36.2301 32.7151 36.6632 32.1403 37.1042C31.5634 37.5468 30.9826 37.9818 30.3914 38.4049C29.8537 38.7898 29.3226 39.182 28.7974 39.5837C28.7362 39.6305 28.675 39.6773 28.6119 39.7254C28.261 39.9952 27.9179 40.2722 27.5798 40.5578C27.2557 40.411 26.9755 40.2121 26.6887 40.0044C26.6356 39.9661 26.5824 39.9279 26.5277 39.8885C25.4928 39.1414 24.4656 38.3847 23.4568 37.6027C23.0048 37.255 22.5436 36.9195 22.0839 36.5819C21.7006 36.3004 21.3182 36.0178 20.9382 35.7316C19.8941 34.9464 18.8428 34.1706 17.7745 33.4185C17.7295 33.385 17.6844 33.3515 17.638 33.3169C17.4804 33.2015 17.4804 33.2015 17.2858 33.091C16.6481 32.679 16.4986 32.1708 16.3449 31.4588C16.332 31.3986 16.3191 31.3383 16.3058 31.2763C16.277 31.1526 16.248 31.0289 16.2188 30.9053C16.1618 30.6624 16.1066 30.4191 16.0531 30.1754C15.99 29.8915 15.9232 29.609 15.8533 29.3267C15.8195 29.187 15.7858 29.0472 15.7523 28.9075C15.7299 28.8161 15.7299 28.8161 15.7071 28.723C15.559 28.0624 15.7209 27.6505 16.0678 27.0921C16.4268 26.522 16.4454 26.4675 16.4454 26.4675C16.4454 26.4675 18.3971 23.1355 18.813 22.4043Z" fill="white"/>
<path d="M23.1521 27.8053C23.1521 27.8053 22.6467 29.2222 21.0268 29.2222C19.8312 29.2222 18.8129 28.2799 18.8129 27.0083C18.8129 25.9456 18.8129 25.8571 18.8129 25.8571C20.3625 26.5656 23.1521 27.8053 23.1521 27.8053Z" fill="#272154"/>
<path d="M31.8303 27.8053C31.8303 27.8053 32.3357 29.2222 33.9556 29.2222C35.1512 29.2222 36.1695 28.2799 36.1695 27.0083C36.1695 25.9456 36.1695 25.8571 36.1695 25.8571C34.6198 26.5656 31.8303 27.8053 31.8303 27.8053Z" fill="#272154"/>
<path d="M11.2808 16.7378L18.0276 21.216L14.633 26.6558L14.633 29.091L11.8878 40.5588L7.68152 38.832L13.039 25.5932L9.6297 21.216L11.2808 16.7378Z" fill="white"/>
<path d="M43.7192 16.2944L36.9724 20.7726L40.367 26.2125L40.367 28.6477L43.1122 40.1154L47.3185 38.3886L41.961 25.1498L45.3703 20.7726L43.7192 16.2944Z" fill="white"/>
</svg>
