<svg width="61" height="60" viewBox="0 0 61 60" fill="none" xmlns="http://www.w3.org/2000/svg">
<path d="M50.525 14.7337C50.3673 14.607 50.178 14.5256 49.9776 14.4982C49.7771 14.4708 49.5729 14.4984 49.3869 14.5781L31.2744 22.4212C30.4869 22.7644 29.5007 22.9275 28.4882 22.9275C27.0763 22.9331 25.6157 22.605 24.5975 22.1587C24.2873 22.028 23.9919 21.8646 23.7163 21.6712C23.7913 21.6337 23.885 21.5925 23.9882 21.5512L40.4619 14.4187L42.9182 15.4687V12.3994C42.9219 12.1805 42.8761 11.9636 42.7842 11.7649C42.6923 11.5662 42.5567 11.3908 42.3875 11.2519C42.2304 11.1253 42.0418 11.0439 41.842 11.0165C41.6421 10.9891 41.4385 11.0166 41.2532 11.0962L23.1407 18.9394C22.5819 19.1644 22.1019 19.4419 21.6969 19.845C21.2279 20.3077 20.9616 20.9374 20.9563 21.5962C20.9563 21.615 20.9619 21.6469 20.9619 21.6469V49.2656L20.9582 49.3031C20.9582 49.3106 20.9638 49.3144 20.9638 49.3218V49.3518H20.9675C21.005 50.3175 21.4925 50.9325 21.9575 51.3675C23.42 52.6575 25.8763 53.3793 28.49 53.4169C29.7275 53.4169 30.9838 53.2293 32.1463 52.7306L50.2644 44.8856C50.7425 44.6793 51.0557 44.1675 51.0557 43.5881V15.8812C51.0586 15.6625 51.0124 15.4458 50.9206 15.2473C50.8287 15.0487 50.6936 14.8732 50.525 14.7337ZM39.0369 9.48373C39.005 9.07123 38.8344 8.67748 38.5307 8.44123C38.3729 8.31451 38.1837 8.23309 37.9832 8.20567C37.7827 8.17826 37.5785 8.20589 37.3925 8.2856L19.28 16.125C18.4925 16.4662 17.5044 16.6312 16.4938 16.6312C15.0819 16.635 13.6213 16.3069 12.6032 15.8587C12.2926 15.7302 11.9971 15.568 11.7219 15.375C11.7969 15.3375 11.8907 15.2962 11.9938 15.255L28.4694 8.12248L30.9257 9.17248V6.10685C30.929 5.88784 30.8829 5.67089 30.7906 5.4722C30.6984 5.27351 30.5626 5.0982 30.3932 4.95935C30.2357 4.8328 30.0468 4.75146 29.8466 4.72405C29.6465 4.69663 29.4426 4.72418 29.2569 4.80373L11.1444 12.6487C10.5857 12.8737 10.1075 13.1494 9.70066 13.5544C9.23237 14.0173 8.96671 14.6471 8.96191 15.3056C8.96191 15.3281 8.96754 15.3581 8.96754 15.3581V43.065H8.97129C9.00879 44.0306 9.49629 44.6456 9.96129 45.0806C11.4238 46.3706 13.88 47.0906 16.4957 47.1281C17.206 47.1239 17.914 47.0473 18.6088 46.8993V21.645C18.59 20.3325 19.115 19.0725 20.0375 18.165C20.6767 17.545 21.436 17.0626 22.2688 16.7475L39.0369 9.48373Z" fill="#343434"/>
</svg>
