<svg width="20" height="20" viewBox="0 0 20 20" fill="none" xmlns="http://www.w3.org/2000/svg">
<path d="M15.1373 3.13725H5.72549C5.56948 3.13725 5.41986 3.19923 5.30955 3.30955C5.19923 3.41986 5.13725 3.56948 5.13725 3.72549V8.43137C5.13725 8.58738 5.19923 8.737 5.30955 8.84732C5.41986 8.95763 5.56948 9.01961 5.72549 9.01961H15.1373C15.2933 9.01961 15.4429 8.95763 15.5532 8.84732C15.6635 8.737 15.7255 8.58738 15.7255 8.43137V3.72549C15.7255 3.56948 15.6635 3.41986 15.5532 3.30955C15.4429 3.19923 15.2933 3.13725 15.1373 3.13725ZM14.549 7.84314H6.31373V4.31373H14.549V7.84314ZM17.4902 0H3.37255C3.00853 0 2.65941 0.144608 2.40201 0.40201C2.14461 0.659413 2 1.00853 2 1.37255V18.6275C2 18.9915 2.14461 19.3406 2.40201 19.598C2.65941 19.8554 3.00853 20 3.37255 20H17.4902C17.8542 20 18.2033 19.8554 18.4607 19.598C18.7181 19.3406 18.8627 18.9915 18.8627 18.6275V1.37255C18.8627 1.00853 18.7181 0.659413 18.4607 0.40201C18.2033 0.144608 17.8542 0 17.4902 0ZM17.6863 18.6275C17.6863 18.6795 17.6656 18.7293 17.6288 18.7661C17.5921 18.8029 17.5422 18.8235 17.4902 18.8235H3.37255C3.32055 18.8235 3.27067 18.8029 3.2339 18.7661C3.19713 18.7293 3.17647 18.6795 3.17647 18.6275V1.37255C3.17647 1.32055 3.19713 1.27067 3.2339 1.2339C3.27067 1.19713 3.32055 1.17647 3.37255 1.17647H17.4902C17.5422 1.17647 17.5921 1.19713 17.6288 1.2339C17.6656 1.27067 17.6863 1.32055 17.6863 1.37255V18.6275ZM7.4902 11.9608C7.4902 12.1547 7.4327 12.3442 7.32497 12.5055C7.21724 12.6667 7.06413 12.7923 6.88498 12.8665C6.70584 12.9408 6.50872 12.9602 6.31854 12.9223C6.12836 12.8845 5.95367 12.7911 5.81656 12.654C5.67945 12.5169 5.58608 12.3422 5.54825 12.152C5.51042 11.9619 5.52984 11.7647 5.60404 11.5856C5.67824 11.4065 5.8039 11.2533 5.96513 11.1456C6.12635 11.0379 6.3159 10.9804 6.5098 10.9804C6.76982 10.9804 7.01919 11.0837 7.20305 11.2675C7.38691 11.4514 7.4902 11.7008 7.4902 11.9608ZM11.4118 11.9608C11.4118 12.1547 11.3543 12.3442 11.2465 12.5055C11.1388 12.6667 10.9857 12.7923 10.8066 12.8665C10.6274 12.9408 10.4303 12.9602 10.2401 12.9223C10.0499 12.8845 9.87524 12.7911 9.73813 12.654C9.60102 12.5169 9.50765 12.3422 9.46982 12.152C9.43199 11.9619 9.45141 11.7647 9.52561 11.5856C9.59981 11.4065 9.72547 11.2533 9.8867 11.1456C10.0479 11.0379 10.2375 10.9804 10.4314 10.9804C10.6914 10.9804 10.9408 11.0837 11.1246 11.2675C11.3085 11.4514 11.4118 11.7008 11.4118 11.9608ZM15.3333 11.9608C15.3333 12.1547 15.2758 12.3442 15.1681 12.5055C15.0604 12.6667 14.9073 12.7923 14.7281 12.8665C14.549 12.9408 14.3519 12.9602 14.1617 12.9223C13.9715 12.8845 13.7968 12.7911 13.6597 12.654C13.5226 12.5169 13.4292 12.3422 13.3914 12.152C13.3536 11.9619 13.373 11.7647 13.4472 11.5856C13.5214 11.4065 13.647 11.2533 13.8083 11.1456C13.9695 11.0379 14.159 10.9804 14.3529 10.9804C14.613 10.9804 14.8623 11.0837 15.0462 11.2675C15.23 11.4514 15.3333 11.7008 15.3333 11.9608ZM7.4902 15.8824C7.4902 16.0763 7.4327 16.2658 7.32497 16.427C7.21724 16.5883 7.06413 16.7139 6.88498 16.7881C6.70584 16.8623 6.50872 16.8817 6.31854 16.8439C6.12836 16.8061 5.95367 16.7127 5.81656 16.5756C5.67945 16.4385 5.58608 16.2638 5.54825 16.0736C5.51042 15.8834 5.52984 15.6863 5.60404 15.5072C5.67824 15.328 5.8039 15.1749 5.96513 15.0672C6.12635 14.9595 6.3159 14.902 6.5098 14.902C6.76982 14.902 7.01919 15.0053 7.20305 15.1891C7.38691 15.373 7.4902 15.6223 7.4902 15.8824ZM11.4118 15.8824C11.4118 16.0763 11.3543 16.2658 11.2465 16.427C11.1388 16.5883 10.9857 16.7139 10.8066 16.7881C10.6274 16.8623 10.4303 16.8817 10.2401 16.8439C10.0499 16.8061 9.87524 16.7127 9.73813 16.5756C9.60102 16.4385 9.50765 16.2638 9.46982 16.0736C9.43199 15.8834 9.45141 15.6863 9.52561 15.5072C9.59981 15.328 9.72547 15.1749 9.8867 15.0672C10.0479 14.9595 10.2375 14.902 10.4314 14.902C10.6914 14.902 10.9408 15.0053 11.1246 15.1891C11.3085 15.373 11.4118 15.6223 11.4118 15.8824ZM15.3333 15.8824C15.3333 16.0763 15.2758 16.2658 15.1681 16.427C15.0604 16.5883 14.9073 16.7139 14.7281 16.7881C14.549 16.8623 14.3519 16.8817 14.1617 16.8439C13.9715 16.8061 13.7968 16.7127 13.6597 16.5756C13.5226 16.4385 13.4292 16.2638 13.3914 16.0736C13.3536 15.8834 13.373 15.6863 13.4472 15.5072C13.5214 15.328 13.647 15.1749 13.8083 15.0672C13.9695 14.9595 14.159 14.902 14.3529 14.902C14.613 14.902 14.8623 15.0053 15.0462 15.1891C15.23 15.373 15.3333 15.6223 15.3333 15.8824Z" fill="black"/>
</svg>
