<svg width="20" height="20" viewBox="0 0 20 20" fill="none" xmlns="http://www.w3.org/2000/svg">
<path d="M3.47826 0V0.869565H0V20H19.1304V0.869565H15.6522V0H13.913V0.869565H5.21739V0H3.47826ZM1.73913 2.6087H3.47826V3.47826H5.21739V2.6087H13.913V3.47826H15.6522V2.6087H17.3913V4.34783H1.73913V2.6087ZM1.73913 6.08696H17.3913V18.2609H1.73913V6.08696ZM6.95652 7.82609V9.56522H8.69565V7.82609H6.95652ZM10.4348 7.82609V9.56522H12.1739V7.82609H10.4348ZM13.913 7.82609V9.56522H15.6522V7.82609H13.913ZM3.47826 11.3043V13.0435H5.21739V11.3043H3.47826ZM6.95652 11.3043V13.0435H8.69565V11.3043H6.95652ZM10.4348 11.3043V13.0435H12.1739V11.3043H10.4348ZM13.913 11.3043V13.0435H15.6522V11.3043H13.913ZM3.47826 14.7826V16.5217H5.21739V14.7826H3.47826ZM6.95652 14.7826V16.5217H8.69565V14.7826H6.95652ZM10.4348 14.7826V16.5217H12.1739V14.7826H10.4348Z" fill="black"/>
</svg>
