<svg width="24" height="20" viewBox="0 0 24 20" fill="none" xmlns="http://www.w3.org/2000/svg">
<path fill-rule="evenodd" clip-rule="evenodd" d="M9.25044 6.66383L11.6739 2.78663L14.0973 6.66383C14.1802 6.79654 14.2895 6.91077 14.4185 6.99939C14.5475 7.08802 14.6933 7.14914 14.8469 7.17896C15.0005 7.20878 15.1586 7.20665 15.3114 7.17271C15.4641 7.13877 15.6083 7.07374 15.7348 6.98167L20.9384 3.19701L18.9401 13.6927C18.9255 13.7691 18.8847 13.8381 18.8247 13.8878C18.7648 13.9375 18.6894 13.9648 18.6115 13.9649H4.73755C4.65946 13.9651 4.58377 13.9379 4.52354 13.8882C4.46331 13.8385 4.42231 13.7694 4.40763 13.6927L2.40935 3.19567L7.61293 6.98033C7.73942 7.07217 7.88345 7.13702 8.03607 7.17084C8.18868 7.20466 8.34663 7.20673 8.50008 7.17692C8.65353 7.14711 8.79921 7.08606 8.92806 6.99756C9.05692 6.90906 9.1662 6.79501 9.2491 6.66249M12.6395 0.536214C12.537 0.37214 12.3945 0.236832 12.2254 0.143026C12.0562 0.0492196 11.866 0 11.6725 0C11.4791 0 11.2888 0.0492196 11.1197 0.143026C10.9505 0.236832 10.808 0.37214 10.7056 0.536214L8.03941 4.80502L1.81121 0.274694C0.975686 -0.332837 -0.17366 0.395396 0.0208033 1.40929L2.43081 14.0695C2.53321 14.6062 2.81965 15.0904 3.24074 15.4385C3.66183 15.7866 4.19119 15.9769 4.73755 15.9766H18.6115C19.1578 15.9766 19.687 15.7859 20.1079 15.4375C20.5287 15.0892 20.8148 14.6049 20.9169 14.0682L23.3269 1.40929C23.5214 0.395396 22.3734 -0.334178 21.5379 0.274694L15.3083 4.80502L12.6395 0.536214ZM3.6271 17.9883C3.36033 17.9883 3.10449 18.0943 2.91586 18.2829C2.72722 18.4715 2.62125 18.7274 2.62125 18.9942C2.62125 19.2609 2.72722 19.5168 2.91586 19.7054C3.10449 19.894 3.36033 20 3.6271 20H19.7206C19.9874 20 20.2432 19.894 20.4319 19.7054C20.6205 19.5168 20.7265 19.2609 20.7265 18.9942C20.7265 18.7274 20.6205 18.4715 20.4319 18.2829C20.2432 18.0943 19.9874 17.9883 19.7206 17.9883H3.6271Z" fill="#343434"/>
</svg>
