<svg width="20" height="20" viewBox="0 0 20 20" fill="none" xmlns="http://www.w3.org/2000/svg">
<path d="M18.6275 5.13726H10.2441L7.50882 2.40196C7.38155 2.27425 7.23027 2.17299 7.06369 2.104C6.89712 2.03501 6.71853 1.99967 6.53824 2H1.37255C1.00853 2 0.659413 2.14461 0.40201 2.40201C0.144608 2.65942 0 3.00853 0 3.37255V17.551C0.000259666 17.8988 0.138546 18.2323 0.384494 18.4783C0.630441 18.7242 0.963943 18.8625 1.31176 18.8627H18.7147C19.0555 18.8625 19.3823 18.727 19.6233 18.486C19.8642 18.245 19.9997 17.9183 20 17.5775V6.50981C20 6.14578 19.8554 5.79667 19.598 5.53927C19.3406 5.28186 18.9915 5.13726 18.6275 5.13726ZM1.37255 3.17647H6.53824C6.59016 3.17669 6.63987 3.19749 6.67647 3.23432L8.57941 5.13726H1.17647V3.37255C1.17647 3.32055 1.19713 3.27067 1.2339 3.2339C1.27067 3.19713 1.32055 3.17647 1.37255 3.17647ZM18.8235 17.5775C18.8235 17.6063 18.8121 17.634 18.7917 17.6544C18.7712 17.6748 18.7436 17.6863 18.7147 17.6863H1.31176C1.27604 17.6858 1.24192 17.6714 1.21666 17.6461C1.19139 17.6208 1.17698 17.5867 1.17647 17.551V6.31373H18.6275C18.6795 6.31373 18.7293 6.33439 18.7661 6.37116C18.8029 6.40793 18.8235 6.4578 18.8235 6.50981V17.5775Z" fill="#343434"/>
</svg>
