<svg width="20" height="20" viewBox="0 0 20 20" fill="none" xmlns="http://www.w3.org/2000/svg">
<path d="M9.99856 14.7369C7.36698 14.7369 5.26172 12.6316 5.26172 10C5.26172 7.36845 7.36698 5.26318 9.99856 5.26318C12.6301 5.26318 14.7354 7.36845 14.7354 10C14.7354 12.6316 12.6301 14.7369 9.99856 14.7369ZM9.99856 6.31582C7.94593 6.31582 6.31435 7.94739 6.31435 10C6.31435 12.0527 7.94593 13.6842 9.99856 13.6842C12.0512 13.6842 13.6828 12.0527 13.6828 10C13.6828 7.94739 12.0512 6.31582 9.99856 6.31582Z" fill="#343434"/>
<path d="M11.4196 20H8.57748L7.78801 17.5789C7.26169 17.4211 6.73538 17.2105 6.26169 16.9474L3.9459 18.1053L1.9459 16.1053L3.1038 13.7895C2.84064 13.3158 2.63011 12.7895 2.47222 12.2632L-0.00146484 11.4211V8.57895L2.41959 7.78947C2.57748 7.26316 2.78801 6.73684 3.05117 6.26316L1.89327 3.94737L3.89327 1.94737L6.20906 3.10526C6.68274 2.84211 7.20906 2.63158 7.73538 2.47368L8.57748 0H11.4196L12.2091 2.42105C12.7354 2.57895 13.2617 2.78947 13.7354 3.05263L16.0512 1.89474L18.0512 3.89474L16.8933 6.21053C17.1564 6.68421 17.367 7.21053 17.5248 7.73684L19.9459 8.52632V11.3684L17.5248 12.1579C17.367 12.6842 17.1564 13.2105 16.8933 13.6842L18.0512 16L16.0512 18L13.7354 16.8421C13.2617 17.1053 12.7354 17.3158 12.2091 17.4737L11.4196 20ZM9.31432 18.9474H10.6827L11.4196 16.6842L11.6827 16.6316C12.3143 16.4737 12.8933 16.2105 13.4722 15.8947L13.7354 15.7368L15.8406 16.7895L16.788 15.8421L15.7354 13.7368L15.8933 13.4737C16.2091 12.9474 16.4722 12.3158 16.6301 11.6842L16.6827 11.4211L18.9459 10.6842V9.31579L16.6827 8.57895L16.6301 8.31579C16.4722 7.68421 16.2091 7.10526 15.8933 6.52632L15.7354 6.26316L16.788 4.15789L15.8406 3.21053L13.7354 4.26316L13.4722 4.10526C12.8933 3.78947 12.3143 3.52632 11.6827 3.36842L11.4196 3.31579L10.6827 1.05263H9.31432L8.57748 3.31579L8.31432 3.36842C7.68274 3.52632 7.1038 3.78947 6.52485 4.10526L6.26169 4.26316L4.15643 3.21053L3.20906 4.15789L4.26169 6.26316L4.1038 6.52632C3.78801 7.05263 3.52485 7.68421 3.36696 8.31579L3.31432 8.57895L1.05117 9.31579V10.6842L3.31432 11.4211L3.36696 11.6842C3.52485 12.3158 3.78801 12.8947 4.1038 13.4737L4.26169 13.7368L3.20906 15.8421L4.15643 16.7895L6.26169 15.7368L6.52485 15.8947C7.1038 16.2105 7.68274 16.4737 8.31432 16.6316L8.57748 16.6842L9.31432 18.9474Z" fill="#343434"/>
</svg>
