<svg width="60" height="60" viewBox="0 0 60 60" fill="none" xmlns="http://www.w3.org/2000/svg">
<path d="M30 17.5C31.6576 17.5 33.2473 16.8415 34.4194 15.6694C35.5915 14.4973 36.25 12.9076 36.25 11.25C36.25 9.5924 35.5915 8.00268 34.4194 6.83058C33.2473 5.65848 31.6576 5 30 5C28.3424 5 26.7527 5.65848 25.5806 6.83058C24.4085 8.00268 23.75 9.5924 23.75 11.25C23.75 12.9076 24.4085 14.4973 25.5806 15.6694C26.7527 16.8415 28.3424 17.5 30 17.5ZM30 55C31.6576 55 33.2473 54.3415 34.4194 53.1694C35.5915 51.9973 36.25 50.4076 36.25 48.75C36.25 47.0924 35.5915 45.5027 34.4194 44.3306C33.2473 43.1585 31.6576 42.5 30 42.5C28.3424 42.5 26.7527 43.1585 25.5806 44.3306C24.4085 45.5027 23.75 47.0924 23.75 48.75C23.75 50.4076 24.4085 51.9973 25.5806 53.1694C26.7527 54.3415 28.3424 55 30 55ZM17.5 23.75H5V36.25H17.5V23.75ZM55 23.75H42.5V36.25H55V23.75Z" fill="#343434" stroke="#343434" stroke-width="4" stroke-linecap="round" stroke-linejoin="round"/>
<path d="M23.75 11.25H11.25V23.75M23.75 48.75H11.25V36.25M36.25 11.25H50V23.75M36.25 48.75H48.75V36.25" stroke="#343434" stroke-width="4" stroke-linecap="round" stroke-linejoin="round"/>
</svg>
