<svg width="50" height="50" viewBox="0 0 50 50" fill="none" xmlns="http://www.w3.org/2000/svg">
<path d="M24.9917 33.775C25.4542 33.775 25.8431 33.6167 26.1583 33.3C26.4764 32.9833 26.6354 32.5938 26.6354 32.1313C26.6354 31.6701 26.4771 31.2812 26.1604 30.9646C25.8437 30.6479 25.4549 30.4896 24.9937 30.4896C24.5326 30.4896 24.1431 30.6479 23.825 30.9646C23.5069 31.2812 23.3486 31.6701 23.35 32.1313C23.3514 32.5924 23.5097 32.9812 23.825 33.2979C24.1417 33.616 24.5306 33.775 24.9917 33.775ZM23.9187 26.875H25.9292C25.9569 26.4181 26.0035 26.0215 26.0687 25.6854C26.134 25.3479 26.2535 25.0153 26.4271 24.6875C26.6007 24.3597 26.8243 24.0306 27.0979 23.7C27.3715 23.3694 27.7118 23.0014 28.1187 22.5958C29.1187 21.5944 29.8437 20.7264 30.2937 19.9917C30.7451 19.2556 30.9708 18.4194 30.9708 17.4833C30.9708 15.8583 30.4125 14.5479 29.2958 13.5521C28.1792 12.5576 26.8153 12.0604 25.2042 12.0604C23.7222 12.0604 22.4458 12.4556 21.375 13.2458C20.3056 14.0361 19.5243 14.984 19.0312 16.0896L20.9458 16.8812C21.2958 16.0521 21.7951 15.3646 22.4437 14.8187C23.0937 14.2715 23.9715 13.9979 25.0771 13.9979C26.3882 13.9979 27.3632 14.3569 28.0021 15.075C28.6396 15.7917 28.9583 16.6063 28.9583 17.5188C28.9583 18.216 28.7674 18.8549 28.3854 19.4354C28.0035 20.0146 27.4681 20.6236 26.7792 21.2625C26.2694 21.7486 25.8319 22.2125 25.4667 22.6542C25.1014 23.0958 24.7979 23.5375 24.5562 23.9792C24.3118 24.4194 24.1451 24.8729 24.0562 25.3396C23.9646 25.8049 23.9187 26.3167 23.9187 26.875ZM25 44.9521L19.6313 39.5833H11.6979C10.7396 39.5833 9.93889 39.2625 9.29583 38.6208C8.65278 37.9792 8.33194 37.1778 8.33333 36.2167V9.61667C8.33333 8.65694 8.65486 7.85625 9.29792 7.21458C9.94097 6.57292 10.7417 6.25139 11.7 6.25H38.3021C39.2604 6.25 40.0611 6.57153 40.7042 7.21458C41.3472 7.85764 41.6681 8.65833 41.6667 9.61667V36.2188C41.6667 37.1771 41.3458 37.9778 40.7042 38.6208C40.0625 39.2639 39.2611 39.5847 38.3 39.5833H30.3687L25 44.9521ZM11.7 37.5H20.4979L25 42.0042L29.5042 37.5H38.3021C38.6757 37.5 38.9826 37.3799 39.2229 37.1396C39.4632 36.8993 39.5833 36.5924 39.5833 36.2188V9.61458C39.5833 9.24097 39.4632 8.93403 39.2229 8.69375C38.9826 8.45347 38.6757 8.33333 38.3021 8.33333H11.6979C11.3243 8.33333 11.0174 8.45347 10.7771 8.69375C10.5368 8.93403 10.4167 9.24167 10.4167 9.61667V36.2188C10.4167 36.5924 10.5368 36.8993 10.7771 37.1396C11.0174 37.3799 11.325 37.5 11.7 37.5Z" fill="#62CEAB"/>
</svg>
