<svg width="20" height="20" viewBox="0 0 20 20" fill="none" xmlns="http://www.w3.org/2000/svg">
<path d="M9.60703 14.224C9.84604 14.224 10.047 14.1422 10.2099 13.9786C10.3743 13.8149 10.4565 13.6136 10.4565 13.3746C10.4565 13.1363 10.3746 12.9353 10.211 12.7717C10.0474 12.6081 9.8464 12.5262 9.60811 12.5262C9.36982 12.5262 9.1685 12.6081 9.00414 12.7717C8.83978 12.9353 8.75795 13.1363 8.75867 13.3746C8.75939 13.6129 8.84121 13.8139 9.00414 13.9775C9.16778 14.1419 9.36875 14.224 9.60703 14.224ZM9.05258 10.6583H10.0915C10.1059 10.4222 10.1299 10.2173 10.1636 10.0436C10.1974 9.86919 10.2591 9.6973 10.3488 9.52791C10.4385 9.35853 10.5541 9.18842 10.6955 9.0176C10.8369 8.84678 11.0127 8.65658 11.223 8.447C11.7398 7.92952 12.1144 7.48093 12.347 7.10125C12.5802 6.72086 12.6969 6.28878 12.6969 5.80503C12.6969 4.96528 12.4083 4.2881 11.8313 3.77348C11.2542 3.25959 10.5494 3.00264 9.71685 3.00264C8.95102 3.00264 8.29143 3.20683 7.73806 3.61522C7.1854 4.02361 6.78168 4.51347 6.52688 5.08478L7.51628 5.49389C7.69714 5.0654 7.95517 4.71013 8.29035 4.42806C8.62625 4.14527 9.07986 4.00388 9.65117 4.00388C10.3287 4.00388 10.8326 4.18941 11.1627 4.56048C11.4922 4.93083 11.6569 5.35178 11.6569 5.82333C11.6569 6.18363 11.5582 6.51379 11.3608 6.8138C11.1634 7.1131 10.8868 7.42782 10.5308 7.75798C10.2673 8.00919 10.0413 8.24891 9.8525 8.47715C9.66373 8.70539 9.50691 8.93363 9.38202 9.16187C9.2557 9.38939 9.16957 9.62373 9.12364 9.86489C9.07627 10.1053 9.05258 10.3698 9.05258 10.6583ZM9.61134 20L6.83694 17.2256H2.73725C2.24201 17.2256 1.82824 17.0598 1.49593 16.7282C1.16362 16.3966 0.99782 15.9825 0.998537 15.4858V1.73979C0.998537 1.24383 1.16469 0.830059 1.497 0.498466C1.82931 0.166873 2.24309 0.000717733 2.73832 0H16.4854C16.9807 0 17.3944 0.166155 17.7268 0.498466C18.0591 0.830776 18.2249 1.24455 18.2241 1.73979V15.4869C18.2241 15.9821 18.0583 16.3959 17.7268 16.7282C17.3952 17.0605 16.981 17.2263 16.4844 17.2256H12.3857L9.61134 20ZM2.73832 16.149H7.28481L9.61134 18.4766L11.9389 16.149H16.4854C16.6785 16.149 16.8371 16.0869 16.9613 15.9627C17.0855 15.8386 17.1475 15.68 17.1475 15.4869V1.73871C17.1475 1.54564 17.0855 1.38702 16.9613 1.26285C16.8371 1.13868 16.6785 1.0766 16.4854 1.0766H2.73725C2.54418 1.0766 2.38556 1.13868 2.26139 1.26285C2.13722 1.38702 2.07514 1.546 2.07514 1.73979V15.4869C2.07514 15.68 2.13722 15.8386 2.26139 15.9627C2.38556 16.0869 2.54454 16.149 2.73832 16.149Z" fill="#343434"/>
</svg>
