<svg width="50" height="50" viewBox="0 0 50 50" fill="none" xmlns="http://www.w3.org/2000/svg">
<path d="M24.9583 41.6666V39.5833H38.3021C38.6215 39.5833 38.9153 39.4499 39.1833 39.1833C39.4514 38.9166 39.5847 38.6221 39.5833 38.2999V11.6999C39.5833 11.3791 39.45 11.0846 39.1833 10.8166C38.9167 10.5485 38.6222 10.4152 38.3 10.4166H24.9604V8.33325H38.3021C39.2604 8.33325 40.0604 8.65478 40.7021 9.29783C41.3438 9.94089 41.6653 10.7416 41.6667 11.6999V38.302C41.6667 39.2603 41.3451 40.061 40.7021 40.7041C40.059 41.3471 39.259 41.668 38.3021 41.6666H24.9583ZM23.4792 32.3728L22.0146 30.8728L26.8479 26.0416H8.37292V23.9583H26.8479L22.0146 19.1249L23.4771 17.6291L30.85 24.9999L23.4792 32.3728Z" fill="#62CEAB"/>
</svg>
