<svg width="20" height="20" viewBox="0 0 20 20" fill="none" xmlns="http://www.w3.org/2000/svg">
<path d="M9.95027 20V18.75H17.9565C18.1482 18.75 18.3244 18.67 18.4853 18.51C18.6461 18.35 18.7261 18.1733 18.7253 17.98V2.02C18.7253 1.8275 18.6453 1.65083 18.4853 1.49C18.3253 1.32917 18.1486 1.24917 17.9553 1.25H9.95152V0H17.9565C18.5315 0 19.0115 0.192916 19.3965 0.57875C19.7815 0.964583 19.9744 1.445 19.9753 2.02V17.9812C19.9753 18.5562 19.7824 19.0367 19.3965 19.4225C19.0107 19.8083 18.5307 20.0008 17.9565 20H9.95027ZM9.06277 14.4237L8.18402 13.5237L11.084 10.625H-0.000976562V9.375H11.084L8.18402 6.475L9.06152 5.5775L13.4853 10L9.06277 14.4237Z" fill="#343434"/>
</svg>
