<svg width="60" height="60" viewBox="0 0 60 60" fill="none" xmlns="http://www.w3.org/2000/svg">
<path d="M6.88748 36.79L8.17998 41.62C9.68998 47.2575 10.4475 50.0775 12.16 51.905C13.5116 53.347 15.2602 54.3561 17.185 54.805C19.625 55.375 22.445 54.62 28.085 53.11C33.72 51.6 36.54 50.845 38.3675 49.1325C38.5175 48.99 38.6675 48.8425 38.8075 48.6925C37.9561 48.6151 37.1098 48.4899 36.2725 48.3175C34.5325 47.9725 32.465 47.4175 30.02 46.7625L29.7525 46.69L29.69 46.675C27.03 45.96 24.8075 45.365 23.0325 44.725C21.165 44.05 19.47 43.2175 18.0275 41.8675C16.0433 40.0085 14.6548 37.603 14.0375 34.955C13.5875 33.0325 13.7175 31.1475 14.0675 29.195C14.4025 27.3225 15.0025 25.0775 15.7225 22.39L17.06 17.405L17.105 17.23C12.305 18.5225 9.77748 19.2875 8.09248 20.865C6.64872 22.2176 5.63861 23.9681 5.18998 25.895C4.61998 28.3325 5.37498 31.1525 6.88748 36.79Z" fill="#343434"/>
<path fill-rule="evenodd" clip-rule="evenodd" d="M52.075 26.7875L50.78 31.6175C49.2675 37.255 48.5125 40.075 46.8 41.9025C45.4487 43.3454 43.7001 44.3554 41.775 44.805C41.5325 44.8625 41.2875 44.905 41.0375 44.935C38.75 45.2175 35.9575 44.47 30.8775 43.11C25.24 41.5975 22.42 40.8425 20.5925 39.13C19.1491 37.778 18.1391 36.0285 17.69 34.1025C17.12 31.6625 17.875 28.845 19.3875 23.2075L20.68 18.3775L21.29 16.115C22.4275 11.95 23.1925 9.65748 24.66 8.08998C26.0116 6.64798 27.7602 5.63883 29.685 5.18998C32.125 4.61998 34.945 5.37498 40.585 6.88748C46.22 8.39748 49.04 9.15248 50.8675 10.8625C52.3112 12.2151 53.3214 13.9656 53.77 15.8925C54.34 18.3325 53.585 21.15 52.075 26.7875ZM27.6275 24.5125C27.6913 24.2746 27.8013 24.0516 27.9514 23.8563C28.1014 23.6609 28.2884 23.4971 28.5017 23.374C28.7151 23.251 28.9506 23.1712 29.1948 23.1392C29.439 23.1072 29.6871 23.1236 29.925 23.1875L42 26.425C42.2441 26.4829 42.4741 26.5892 42.6765 26.7376C42.8788 26.886 43.0492 27.0735 43.1777 27.289C43.3063 27.5045 43.3902 27.7436 43.4246 27.9921C43.4591 28.2406 43.4433 28.4935 43.3782 28.7359C43.3131 28.9782 43.2 29.205 43.0457 29.4028C42.8913 29.6006 42.6989 29.7654 42.4797 29.8875C42.2605 30.0096 42.019 30.0864 41.7695 30.1135C41.5201 30.1405 41.2678 30.1172 41.0275 30.045L28.9525 26.81C28.4726 26.6811 28.0635 26.367 27.8151 25.9367C27.5666 25.5063 27.4992 24.9925 27.6275 24.5125ZM25.6875 31.76C25.8164 31.2801 26.1305 30.871 26.5608 30.6226C26.9911 30.3741 27.5025 30.3067 27.9825 30.435L35.2275 32.3775C35.4728 32.4341 35.7042 32.5395 35.9078 32.6875C36.1115 32.8355 36.2833 33.0229 36.413 33.2387C36.5426 33.4545 36.6275 33.6942 36.6626 33.9435C36.6976 34.1928 36.6821 34.4466 36.6169 34.6898C36.5518 34.9329 36.4383 35.1605 36.2833 35.3589C36.1283 35.5572 35.935 35.7224 35.7148 35.8444C35.4946 35.9664 35.2521 36.0429 35.0017 36.0692C34.7513 36.0955 34.4982 36.0711 34.2575 35.9975L27.0125 34.0575C26.7746 33.9937 26.5516 33.8836 26.3563 33.7336C26.1609 33.5836 25.9971 33.3966 25.874 33.1832C25.751 32.9699 25.6712 32.7344 25.6392 32.4902C25.6072 32.246 25.6236 31.9978 25.6875 31.76Z" fill="#343434"/>
</svg>
