<svg width="50" height="50" viewBox="0 0 50 50" fill="none" xmlns="http://www.w3.org/2000/svg">
<rect width="50" height="50" fill="white"/>
<path d="M30.66 36.2917H18.1244C17.9714 35.7512 17.7488 35.233 17.4622 34.75L33.74 18.4546C34.667 19.0241 35.7324 19.328 36.82 19.3333C37.973 19.3371 39.1039 19.0168 40.084 18.409C41.0641 17.8011 41.8542 16.9301 42.3643 15.895C42.8744 14.8599 43.0841 13.7023 42.9695 12.5537C42.8549 11.4052 42.4206 10.312 41.716 9.39834C41.0115 8.4847 40.0649 7.78735 38.984 7.38562C37.9031 6.98389 36.7313 6.8939 35.6019 7.1259C34.4724 7.35789 33.4307 7.90255 32.5952 8.69792C31.7596 9.49329 31.1639 10.5074 30.8756 11.625H18.1244C17.7496 10.1717 16.8582 8.90522 15.6173 8.06284C14.3764 7.22045 12.8712 6.86004 11.3838 7.04917C9.89646 7.23829 8.52907 7.96396 7.53794 9.09016C6.54681 10.2164 6 11.6658 6 13.1667C6 14.6676 6.54681 16.117 7.53794 17.2432C8.52907 18.3694 9.89646 19.0951 11.3838 19.2842C12.8712 19.4733 14.3764 19.1129 15.6173 18.2705C16.8582 17.4281 17.7496 16.1616 18.1244 14.7083H30.8756C31.0286 15.2488 31.2512 15.7671 31.5378 16.25L15.26 32.5454C14.333 31.9759 13.2676 31.672 12.18 31.6667C11.027 31.6629 9.89615 31.9832 8.91601 32.591C7.93587 33.1989 7.1458 34.0699 6.63569 35.105C6.12559 36.1401 5.91591 37.2978 6.03052 38.4463C6.14512 39.5948 6.57941 40.688 7.28398 41.6017C7.98855 42.5153 8.93511 43.2127 10.016 43.6144C11.0969 44.0161 12.2687 44.1061 13.3981 43.8741C14.5276 43.6421 15.5693 43.0975 16.4049 42.3021C17.2404 41.5067 17.8361 40.4926 18.1244 39.375H30.66V44H42.98V31.6667H30.66V36.2917ZM12.18 16.25C11.5708 16.25 10.9753 16.0692 10.4688 15.7304C9.96234 15.3916 9.56756 14.91 9.33445 14.3466C9.10133 13.7832 9.04033 13.1633 9.15918 12.5652C9.27802 11.967 9.57136 11.4176 10.0021 10.9864C10.4329 10.5552 10.9817 10.2616 11.5791 10.1426C12.1766 10.0236 12.7959 10.0847 13.3587 10.3181C13.9215 10.5514 14.4025 10.9466 14.7409 11.4537C15.0794 11.9607 15.26 12.5569 15.26 13.1667C15.26 13.9844 14.9355 14.7687 14.3579 15.3469C13.7803 15.9252 12.9969 16.25 12.18 16.25ZM36.82 10.0833C37.4292 10.0833 38.0247 10.2642 38.5312 10.603C39.0377 10.9418 39.4324 11.4233 39.6656 11.9867C39.8987 12.5501 39.9597 13.1701 39.8408 13.7682C39.722 14.3663 39.4286 14.9157 38.9979 15.3469C38.5672 15.7781 38.0183 16.0718 37.4209 16.1908C36.8234 16.3097 36.2041 16.2487 35.6413 16.0153C35.0785 15.7819 34.5975 15.3867 34.2591 14.8797C33.9206 14.3726 33.74 13.7765 33.74 13.1667C33.74 12.3489 34.0645 11.5647 34.6421 10.9864C35.2197 10.4082 36.0031 10.0833 36.82 10.0833ZM12.18 40.9167C11.5708 40.9167 10.9753 40.7358 10.4688 40.397C9.96234 40.0582 9.56756 39.5767 9.33445 39.0133C9.10133 38.4499 9.04033 37.8299 9.15918 37.2318C9.27802 36.6337 9.57136 36.0843 10.0021 35.6531C10.4329 35.2219 10.9817 34.9282 11.5791 34.8092C12.1766 34.6903 12.7959 34.7513 13.3587 34.9847C13.9215 35.2181 14.4025 35.6133 14.7409 36.1203C15.0794 36.6274 15.26 37.2235 15.26 37.8333C15.26 38.6511 14.9355 39.4353 14.3579 40.0136C13.7803 40.5918 12.9969 40.9167 12.18 40.9167ZM33.74 34.75H39.9V40.9167H33.74V34.75Z" fill="#62CEAB"/>
</svg>
