<svg width="80" height="80" viewBox="0 0 80 80" fill="none" xmlns="http://www.w3.org/2000/svg">
<rect width="80" height="80" fill="white"/>
<path d="M14.0621 65.8018L32.1434 46.8719M54.9126 38.454L49.5001 55.4534C49.4137 55.7259 49.2658 55.9725 49.069 56.1724C48.8721 56.3723 48.6321 56.5195 48.3693 56.6016L15.19 66.9261C14.8911 67.0191 14.5736 67.0244 14.272 66.9415C13.9704 66.8587 13.6962 66.6908 13.4794 66.4561C13.2626 66.2215 13.1115 65.9291 13.0424 65.6107C12.9733 65.2924 12.9889 64.9603 13.0876 64.6506L23.8613 30.8184C23.9385 30.5754 24.0648 30.3528 24.2314 30.1654C24.3981 29.9781 24.6013 29.8305 24.8273 29.7327L40.1327 23.1351C40.4439 23.0006 40.7862 22.9655 41.1163 23.0344C41.4465 23.1032 41.7498 23.2728 41.988 23.5218L54.5006 36.6276C54.7245 36.862 54.8816 37.1569 54.9544 37.4795C55.0271 37.8021 55.0127 38.1395 54.9126 38.454Z" stroke="black" stroke-width="2.5" stroke-linecap="round" stroke-linejoin="round"/>
<path d="M56.3163 37.7283L64.3388 29.7036C65.4025 28.6397 66 27.197 66 25.6927C66 24.1883 65.4025 22.7456 64.3388 21.6817L58.3247 15.6625C57.7979 15.1354 57.1723 14.7173 56.4838 14.4321C55.7953 14.1468 55.0573 14 54.312 14C53.5668 14 52.8288 14.1468 52.1403 14.4321C51.4518 14.7173 50.8262 15.1354 50.2993 15.6625L42.2768 23.6872M39.2641 40.7351C38.8688 40.3401 38.3996 40.0267 37.8832 39.813C37.3669 39.5993 36.8135 39.4894 36.2546 39.4895C35.6958 39.4896 35.1424 39.5998 34.6261 39.8138C34.1099 40.0278 33.6408 40.3413 33.2457 40.7365C32.8507 41.1318 32.5373 41.6009 32.3236 42.1173C32.1098 42.6336 31.9999 43.1869 32 43.7458C32.0001 44.3046 32.1103 44.8579 32.3243 45.3741C32.5383 45.8903 32.8519 46.3593 33.2471 46.7544C34.0454 47.5522 35.128 48.0003 36.2566 48C37.3853 47.9997 38.4676 47.5512 39.2655 46.753C40.0634 45.9548 40.5115 44.8723 40.5112 43.7437C40.511 42.6152 40.0623 41.5329 39.2641 40.7351Z" stroke="black" stroke-width="2.5" stroke-linecap="round" stroke-linejoin="round"/>
</svg>
