<svg width="20" height="20" viewBox="0 0 20 20" fill="none" xmlns="http://www.w3.org/2000/svg">
<path d="M2.5 17.5H20V20H0V0H2.5V17.5ZM5.625 16.25C5.37156 16.2505 5.12064 16.1996 4.88741 16.1004C4.65419 16.0012 4.44349 15.8558 4.26806 15.6729C4.09262 15.49 3.95609 15.2734 3.86671 15.0362C3.77734 14.7991 3.73697 14.5462 3.74805 14.293C3.75913 14.0398 3.82142 13.7915 3.93117 13.5631C4.04092 13.3346 4.19585 13.1308 4.38659 12.9639C4.57733 12.797 4.79992 12.6705 5.04092 12.5921C5.28192 12.5136 5.53632 12.4849 5.78875 12.5075L7.80375 9.14875C7.6195 8.8658 7.51508 8.53834 7.50151 8.20096C7.48795 7.86358 7.56574 7.52879 7.72667 7.23196C7.8876 6.93512 8.1257 6.68726 8.41583 6.51453C8.70596 6.3418 9.03735 6.25062 9.375 6.25062C9.71265 6.25062 10.044 6.3418 10.3342 6.51453C10.6243 6.68726 10.8624 6.93512 11.0233 7.23196C11.1843 7.52879 11.2621 7.86358 11.2485 8.20096C11.2349 8.53834 11.1305 8.8658 10.9462 9.14875L12.9613 12.5075C13.0569 12.4989 13.153 12.4981 13.2487 12.505L16.5762 6.6825C16.3371 6.33224 16.2238 5.91125 16.2548 5.48828C16.2858 5.06531 16.4593 4.66534 16.7469 4.35368C17.0346 4.04202 17.4193 3.83708 17.8385 3.77232C18.2576 3.70755 18.6863 3.7868 19.0546 3.99711C19.4229 4.20742 19.709 4.53637 19.8662 4.93026C20.0234 5.32414 20.0425 5.7597 19.9202 6.1658C19.798 6.5719 19.5417 6.92456 19.1931 7.16621C18.8446 7.40785 18.4244 7.5242 18.0013 7.49625L14.6738 13.3187C14.8649 13.5991 14.9764 13.9262 14.9964 14.265C15.0163 14.6038 14.9439 14.9416 14.7869 15.2425C14.6298 15.5434 14.3941 15.796 14.1048 15.9734C13.8155 16.1508 13.4835 16.2464 13.1441 16.2499C12.8048 16.2535 12.4708 16.1648 12.1779 15.9935C11.8849 15.8221 11.644 15.5745 11.4807 15.2769C11.3175 14.9794 11.2381 14.6431 11.2509 14.304C11.2638 13.9649 11.3684 13.6356 11.5538 13.3512L9.53875 9.9925C9.42982 10.0026 9.32018 10.0026 9.21125 9.9925L7.19625 13.3512C7.38066 13.6342 7.48522 13.9617 7.49887 14.2992C7.51252 14.6367 7.43477 14.9716 7.27381 15.2685C7.11286 15.5654 6.87469 15.8134 6.58447 15.9862C6.29425 16.1589 5.96275 16.2501 5.625 16.25Z" fill="black"/>
</svg>
