<svg width="80" height="80" viewBox="0 0 80 80" fill="none" xmlns="http://www.w3.org/2000/svg">
<rect width="80" height="80" fill="white"/>
<path d="M39.5793 55.3183C40.2064 55.3183 40.7353 55.103 41.166 54.6723C41.5967 54.2417 41.812 53.7128 41.812 53.0857C41.812 52.4585 41.5948 51.9297 41.1603 51.499C40.7297 51.0683 40.2008 50.853 39.5737 50.853C38.9466 50.853 38.4177 51.0693 37.987 51.5018C37.5563 51.9344 37.3419 52.4633 37.3438 53.0885C37.3438 53.7156 37.5592 54.2445 37.9898 54.6752C38.4243 55.1058 38.9541 55.3212 39.5793 55.3212M38.1145 45.9372H40.8515C40.9233 44.7056 41.1547 43.7045 41.5457 42.9338C41.9367 42.1651 42.7404 41.1828 43.9568 39.9872C45.2224 38.7235 46.1631 37.5911 46.7788 36.59C47.3946 35.5889 47.7034 34.431 47.7053 33.1163C47.7053 30.8837 46.9214 29.1043 45.3537 27.7783C43.784 26.4523 41.9272 25.7893 39.7833 25.7893C37.7452 25.7893 36.015 26.3428 34.5927 27.4497C33.1703 28.5584 32.1286 29.8316 31.4675 31.269L34.0742 32.3485C34.5275 31.3172 35.1763 30.4058 36.0207 29.6143C36.865 28.821 38.0833 28.4243 39.6757 28.4243C41.5117 28.4243 42.8528 28.9287 43.699 29.9373C44.5471 30.946 44.9712 32.0548 44.9712 33.2637C44.9712 34.2459 44.7058 35.1223 44.175 35.893C43.6461 36.6656 42.9567 37.4419 42.1067 38.222C40.4633 39.7369 39.3867 41.0213 38.8767 42.0753C38.3667 43.1293 38.1126 44.4166 38.1145 45.9372ZM39.5085 66C35.9838 66 32.6688 65.3313 29.5635 63.994C26.4601 62.6548 23.7599 60.8377 21.463 58.5427C19.1661 56.2477 17.3481 53.5503 16.0088 50.4507C14.6696 47.351 14 44.0369 14 40.5085C14 36.9801 14.6696 33.6651 16.0088 30.5635C17.3462 27.4601 19.1604 24.7599 21.4517 22.463C23.7429 20.1661 26.4412 18.3481 29.5465 17.0088C32.6518 15.6696 35.9668 15 39.4915 15C43.0162 15 46.3312 15.6696 49.4365 17.0088C52.5399 18.3462 55.2401 20.1614 57.537 22.4545C59.8339 24.7476 61.6519 27.4459 62.9912 30.5493C64.3304 33.6528 65 36.9668 65 40.4915C65 44.0162 64.3313 47.3312 62.994 50.4365C61.6567 53.5418 59.8396 56.242 57.5427 58.537C55.2458 60.832 52.5484 62.6501 49.4507 63.9912C46.3529 65.3323 43.0388 66.0019 39.5085 66ZM39.5 63.1667C45.8278 63.1667 51.1875 60.9708 55.5792 56.5792C59.9708 52.1875 62.1667 46.8278 62.1667 40.5C62.1667 34.1722 59.9708 28.8125 55.5792 24.4208C51.1875 20.0292 45.8278 17.8333 39.5 17.8333C33.1722 17.8333 27.8125 20.0292 23.4208 24.4208C19.0292 28.8125 16.8333 34.1722 16.8333 40.5C16.8333 46.8278 19.0292 52.1875 23.4208 56.5792C27.8125 60.9708 33.1722 63.1667 39.5 63.1667Z" fill="black"/>
</svg>
