<svg width="18" height="22" viewBox="0 0 18 22" fill="none" xmlns="http://www.w3.org/2000/svg">
<path d="M13.7057 5.76463C13.7055 6.39012 13.5821 7.00945 13.3425 7.58724C13.1029 8.16504 12.7519 8.69 12.3095 9.13214C11.8671 9.57428 11.3419 9.92495 10.7639 10.1641C10.1859 10.4033 9.56654 10.5263 8.94105 10.5261C7.99901 10.5258 7.07821 10.2461 6.29511 9.72248C5.51201 9.19885 4.90176 8.45476 4.54155 7.58431C4.18134 6.71386 4.08733 5.75614 4.27143 4.83226C4.45552 3.90838 4.90943 3.05984 5.57578 2.39394C6.24212 1.72804 7.09097 1.27469 8.01497 1.09121C8.93897 0.907738 9.89663 1.00238 10.7668 1.36317C11.637 1.72397 12.3807 2.33471 12.9038 3.11816C13.4269 3.90161 13.706 4.82259 13.7057 5.76463ZM16.8821 21H1V17.8299C1 16.5663 1.50199 15.3544 2.39553 14.4608C3.28907 13.5673 4.50097 13.0653 5.76463 13.0653H12.1175C13.3811 13.0653 14.593 13.5673 15.4866 14.4608C16.3801 15.3544 16.8821 16.5663 16.8821 17.8299V21Z" stroke="black" stroke-linecap="square"/>
</svg>
