<svg width="20" height="20" viewBox="0 0 20 20" fill="none" xmlns="http://www.w3.org/2000/svg">
<path d="M3.12552 3C2.29658 3 1.50159 3.3293 0.915444 3.91544C0.329295 4.50159 0 5.29658 0 6.12552V13.21C0 14.039 0.329295 14.834 0.915444 15.4201C1.50159 16.0063 2.29658 16.3356 3.12552 16.3356H11.0435C11.8724 16.3356 12.6674 16.0063 13.2536 15.4201C13.8397 14.834 14.169 14.039 14.169 13.21V12.7908L17.713 15.2379C18.6798 15.9055 20 15.2129 20 14.0377V5.29455C20 4.11935 18.6798 3.4259 17.713 4.09435L14.169 6.54142V6.12552C14.169 5.29658 13.8397 4.50159 13.2536 3.91544C12.6674 3.3293 11.8724 3 11.0435 3H3.12552ZM14.169 8.06001L18.4231 5.12285C18.4544 5.10126 18.491 5.08864 18.5289 5.08635C18.5669 5.08407 18.6047 5.09221 18.6384 5.1099C18.672 5.12758 18.7002 5.15414 18.7198 5.18668C18.7395 5.21923 18.7498 5.25653 18.7498 5.29455V14.0377C18.7498 14.0757 18.7395 14.113 18.7198 14.1455C18.7002 14.1781 18.672 14.2046 18.6384 14.2223C18.6047 14.24 18.5669 14.2482 18.5289 14.2459C18.491 14.2436 18.4544 14.231 18.4231 14.2094L14.169 11.2705V8.06001ZM1.25021 6.12552C1.25021 5.62816 1.44779 5.15116 1.79947 4.79947C2.15116 4.44779 2.62816 4.25021 3.12552 4.25021H11.0435C11.5409 4.25021 12.0179 4.44779 12.3696 4.79947C12.7212 5.15116 12.9188 5.62816 12.9188 6.12552V13.21C12.9188 13.7074 12.7212 14.1844 12.3696 14.5361C12.0179 14.8878 11.5409 15.0853 11.0435 15.0853H3.12552C2.62816 15.0853 2.15116 14.8878 1.79947 14.5361C1.44779 14.1844 1.25021 13.7074 1.25021 13.21V6.12552Z" fill="black"/>
</svg>
